<svg version="1.2" xmlns="http://www.w3.org/2000/svg" viewBox="0 0 1000 1000" width="1000" height="1000">
	<title>New Project</title>
	<style>
		.s0 { fill: #e6e6e6 } 
		.s1 { fill: #c47f5f } 
		.s2 { fill: #5da9aa } 
		.s3 { fill: #42210b } 
		.s4 { fill: #005b94 } 
		.s5 { fill: #001694 } 
		.s6 { fill: #2bcd3a } 
		.s7 { fill: #dfbaa8 } 
		.s8 { fill: #d69ba4 } 
		.s9 { fill: #481e19 } 
	</style>
	<g id="Bear">
		<path id="&lt;Path&gt;" class="s0" d="m502.3 894.7c-99.2 0-179.4-11.5-179.4-25.8 0-14.3 80.2-25.9 179.4-25.9 99.2 0 179.3 11.6 179.3 25.9 0 14.3-80.1 25.8-179.3 25.8z"/>
		<path id="&lt;Path&gt;" class="s1" d="m732.2 560.3c-7.6 10.2-19.2 15.6-31.2 15.6-6.5 0-13.2-1.6-19.3-5.2-10.3-5.9-22.5-13-35.4-20.9-17.3-10.5-35.8-22.3-53-34.3-2.4-1.6-4.5-3.4-6.6-5.2-18-15.8-27.5-39.5-25.2-63.7 0-0.5 0-1 0.1-1.6 2.1-22.5 20.4-37.8 40.5-38.9 8.7-0.6 17.7 1.5 25.9 6.9 19.3 12.6 40.8 28.6 60.6 47.6 17.4 16.7 33.5 35.6 45.8 56.6 8 13.6 7.2 30.6-2.2 43.1z"/>
		<path id="&lt;Path&gt;" class="s2" d="m586.7 510.3c1.5-45.2 8.2-79.8 15.4-104.2 8.7-0.6 17.7 1.5 25.9 6.9 19.3 12.6 40.8 28.6 60.6 47.6l-42.3 89.2z"/>
		<path id="&lt;Path&gt;" class="s3" d="m670.8 477.2q-11.5 24-23 48c-0.8 1.6-3.2 0.2-2.4-1.4q11.5-24 23-48c0.8-1.6 3.1-0.2 2.4 1.4z"/>
		<path id="&lt;Path&gt;" class="s3" d="m658.8 483.1q-6.9 18-16.2 34.8c-0.9 1.6-3.3 0.2-2.4-1.4 6.1-11 11.4-22.4 16-34.2 0.6-1.6 3.3-0.9 2.6 0.8z"/>
		<path id="&lt;Path&gt;" class="s1" d="m495.2 722.4v117.4c0 12.6-8.8 22.9-19.7 22.9h-39.5c-8.7 0-16.3-6.6-18.8-16.3l-41-157.3z"/>
		<path id="&lt;Path&gt;" class="s1" d="m644.8 689.1l-42.9 157.3c-2.7 9.7-10.7 16.3-19.8 16.3h-41.3c-11.4 0-20.6-10.3-20.6-22.9v-117.4z"/>
		<path id="&lt;Path&gt;" class="s4" d="m539.2 492.6c0 90-57.1 162.9-127.6 162.9-70.4 0-127.6-72.9-127.6-162.9 0-16.1 1.8-31.6 5.3-46.3 15.5-67.4 64.4-116.6 122.3-116.6 21.4 0 41.6 6.7 59.3 18.6 40.6 27.3 68.3 81.7 68.3 144.3z"/>
		<path id="&lt;Path&gt;" class="s5" d="m470.9 348.3c-15.5 67.5-64.4 116.7-122.3 116.7-21.5 0-41.6-6.7-59.3-18.7 15.5-67.4 64.4-116.6 122.3-116.6 21.4 0 41.6 6.7 59.3 18.6z"/>
		<path id="&lt;Path&gt;" class="s1" d="m657 637.7q-0.1 4.5-0.5 9.1c-0.3 4.9-0.8 9.9-1.6 14.9-3.7 24.8-12.8 50-31.6 64.9-15.5 12.3-36 16.3-55.7 18.3-44.9 4.5-90.8 0.7-134.7-11-16.2-4.4-32.5-10-45.6-20.8-14.8-12.2-23.8-29.4-29.1-48.2-1.4-4.8-2.5-9.8-3.4-14.8-1-5.7-1.8-11.5-2.3-17.2-0.4-4.6-0.7-9.3-0.9-14-1.9-50.9 9.6-101.2 17.2-151.5 3.3-21.2 5.5-42.6 7.6-64 0.4-3.9 0.8-7.7 1.3-11.6 0.3-3 0.6-6.1 0.8-9.1 2.7-25.4 5.7-50.7 10.7-75.6 4.8-23.5 11.6-47.6 22.1-69.5 2.5-5.3 5.1-10.4 8.1-15.3q4.7-7.9 10.2-15.1c4.4-5.9 9.5-11.5 15-16.5 4.3-3.9 8.9-7.5 13.6-10.6 20.2-13.3 44.3-19.1 68.7-10.8 7.8 2.6 15.1 6.4 21.8 11 4.7 3.4 9.2 7.1 13.3 11.2 9.2 9.1 16.9 19.9 22.7 31.5 2.7 5.2 5 10.6 6.8 16q1.4 3.9 2.5 7.9c6 21.8 6.9 45.9 9.6 68.4 2.7 22.1 7.7 45.3 8.5 67.5 0.1 0.9 0.1 1.6 0.1 2.5 0.7 5.9 1.6 11.8 2.4 17.7 0.6 4.2 1.3 8.4 1.9 12.6 4.9 30.5 11.3 60.4 18 91 5.5 24.5 10.7 49.1 14.9 73.9 1.2 7.8 2.8 15.3 4.1 22.6 2.1 11.6 3.7 22.8 3.5 34.6z"/>
		<path id="&lt;Path&gt;" class="s6" d="m664.2 603.1c-112 52.3-253.6 26.9-301.9 15.8-1.9-50.9 9.5-101.2 17.2-151.5 3.3-21.2 5.4-42.6 7.6-64 0.4-3.9 0.8-7.7 1.2-11.6 0.3-3 0.6-6.1 0.9-9.1 140.2 44.7 208 17.2 233.5 0.1 0.1 0.9 0.1 1.6 0.1 2.5 0.8 5.9 1.6 11.8 2.5 17.7 0.5 4.2 1.2 8.4 1.9 12.6 4.8 30.5 11.2 60.4 18 91 5.4 24.5 10.7 49.1 14.8 73.9 1.3 7.8 2.8 15.3 4.2 22.6z"/>
		<path id="&lt;Path&gt;" class="s3" d="m568 420.6c-40.8 6.8-84 2.9-124.7-3-1.8-0.3-1-2.9 0.7-2.7 40.1 5.9 83.1 9.8 123.3 3 1.7-0.3 2.4 2.4 0.7 2.7z"/>
		<path id="&lt;Path&gt;" class="s3" d="m558.6 431.1c-33.6 7.9-72.7 4.8-106.7 0.4-1.7-0.2-1.7-3 0-2.8 33.8 4.4 72.7 7.6 106-0.3 1.7-0.4 2.5 2.3 0.7 2.7z"/>
		<path id="&lt;Path&gt;" class="s3" d="m588.7 619.7c-69.9 10.2-142.7 11.8-212.3-1.7-1.8-0.4-1-3.1 0.7-2.7 69.1 13.4 141.5 11.8 210.9 1.7 1.7-0.3 2.5 2.4 0.7 2.7z"/>
		<path id="&lt;Path&gt;" class="s3" d="m625.2 600.6c-54 18.2-110 19.8-166.4 19.5-1.8 0-1.8-2.7 0-2.7 56.1 0.3 112-1.4 165.6-19.4 1.7-0.6 2.4 2.1 0.8 2.6z"/>
		<path id="&lt;Path&gt;" class="s7" d="m521.1 340.2c-29.1 0-52.6-16.1-52.6-36 0-19.9 23.5-36 52.6-36 29.1 0 52.6 16.1 52.6 36 0 19.9-23.5 36-52.6 36z"/>
		<path id="&lt;Path&gt;" class="s1" d="m458.2 180.1c-4.7 3.1-9.3 6.7-13.6 10.6-5.5 5-10.6 10.6-15 16.5q-5.5 7.2-10.2 15.1c-3 4.9-5.6 10-8.1 15.3-14.1-5.8-24.1-19.7-24.1-35.8 0-21.5 17.4-38.8 38.8-38.8 13.4 0 25.3 6.8 32.2 17.1z"/>
		<path id="&lt;Path&gt;" class="s8" d="m444.6 190.7c-5.5 5-10.6 10.6-15 16.5q-5.5 7.2-10.2 15.1c-8.7-2.8-15-10.9-15-20.5 0-12 9.6-21.7 21.6-21.7 7.9 0 14.8 4.3 18.6 10.6z"/>
		<path id="&lt;Path&gt;" class="s1" d="m619.9 201.8c0 17.7-12.1 32.8-28.4 37.2-1.8-5.4-4.1-10.8-6.8-16-5.8-11.6-13.5-22.4-22.7-31.5-4.1-4.1-8.6-7.8-13.3-11.2 7-10.4 18.9-17.3 32.4-17.3 21.4 0 38.8 17.3 38.8 38.8z"/>
		<path id="&lt;Path&gt;" class="s8" d="m602.7 201.8c0 10.7-7.7 19.5-18 21.2-5.8-11.6-13.5-22.4-22.7-31.5 3.7-6.8 10.8-11.4 19.1-11.4 11.9 0 21.6 9.7 21.6 21.7z"/>
		<path id="&lt;Path&gt;" class="s8" d="m450.9 292.1c-10.5 0-19.1-5.3-19.1-11.8 0-6.6 8.6-11.8 19.1-11.8 10.6 0 19.1 5.2 19.1 11.8 0 6.5-8.5 11.8-19.1 11.8z"/>
		<path id="&lt;Path&gt;" class="s8" d="m570.9 277.3c-8.1 0-14.6-4.1-14.6-9.1 0-5 6.5-9.1 14.6-9.1 8.1 0 14.7 4.1 14.7 9.1 0 5-6.6 9.1-14.7 9.1z"/>
		<path id="&lt;Path&gt;" class="s9" d="m531.1 296.5c-7.8 0-14-3.9-14-8.7 0-4.8 6.2-8.7 14-8.7 7.8 0 14.1 3.9 14.1 8.7 0 4.8-6.3 8.7-14.1 8.7z"/>
		<path id="&lt;Path&gt;" class="s9" d="m544.8 267.2c-4.7-0.7-7.5-7.6-6.3-15.2 1.2-7.7 6.1-13.3 10.8-12.5 4.7 0.7 7.6 7.6 6.4 15.2-1.3 7.7-6.1 13.3-10.9 12.5z"/>
		<path id="&lt;Path&gt;" class="s9" d="m478.3 269.3c-4.7-0.7-7.6-7.6-6.4-15.2 1.3-7.7 6.1-13.3 10.8-12.5 4.8 0.7 7.6 7.6 6.4 15.2-1.2 7.7-6.1 13.3-10.8 12.5z"/>
		<path id="&lt;Path&gt;" class="s9" d="m498.2 300.1c1.4-0.5 3 0.2 3.6 1.6 6.8 18.1 21.4 15 22.1 14.9 1.5-0.4 2.9 0.5 3.3 2 0.4 1.5-0.6 3-2 3.4-0.2 0-20 4.5-28.6-18.3q0-0.1-0.1-0.1c-0.4-1.4 0.3-3 1.7-3.5z"/>
		<path id="&lt;Path&gt;" class="s4" d="m460.4 511.6c-0.1 11-1.3 22.1-3.4 32.9-7.5 38.4-31.7 123.7-98.8 120.4-1.4-4.8-2.5-9.8-3.4-14.8 23.2 2.8 62.7-6.7 88.1-90.2 8.5-27.9 11.3-57.3 6.5-86-5.9-35.5-23.4-75.4-73-70.5 0.4-3.9 0.8-7.7 1.3-11.6 26.6-2.3 84 5.2 82.7 119.8z"/>
		<path id="&lt;Path&gt;" class="s4" d="m656.5 646.8c-0.4 4.9-1 9.9-2 14.9-61.2-15.7-85.3-84-93.6-117.2-2.6-10.8-4.1-21.9-4.3-32.9-0.9-63.8 30.5-103.7 56.1-117.8 0.7 4.2 1.6 8.4 2.4 12.5-21 13.9-40 46.1-44.6 67.6-6 28.7-2.5 58.1 8.2 86 21.7 56.4 51.7 79 77.8 86.9z"/>
		<path id="&lt;Path&gt;" class="s1" d="m401.9 533.5c-15.5 20.7-31.2 40.2-43.3 55-7.6 9.3-18.8 14.2-30.1 14.2-7.1 0-14.4-2-20.9-6.2-13.2-8.4-19.9-24-17.3-39.5 5.9-34.2 20.5-67.1 37-95.6 24.3 5.7 60.2 22.5 74.6 72.1z"/>
		<path id="&lt;Path&gt;" class="s2" d="m432.9 488.8c-9.3 14.6-20.1 29.9-31 44.7-14.4-49.6-50.3-66.4-74.6-72.1 8.4-14.5 17.3-27.7 25.9-39.5 19.1-26.1 59.2-22.5 73.4 6.6l8.8 18c6.7 13.6 5.7 29.6-2.5 42.3z"/>
		<path id="&lt;Path&gt; copy" class="s6" d="m586.7 510.3c1.5-45.2 8.2-79.8 15.4-104.2 8.7-0.6 17.7 1.5 25.9 6.9 19.3 12.6 40.8 28.6 60.6 47.6l-42.3 89.2z"/>
		<path id="&lt;Path&gt; copy 2" class="s6" d="m432.9 488.8c-9.3 14.6-20.1 29.9-31 44.7-14.4-49.6-50.3-66.4-74.6-72.1 8.4-14.5 17.3-27.7 25.9-39.5 19.1-26.1 59.2-22.5 73.4 6.6l8.8 18c6.7 13.6 5.7 29.6-2.5 42.3z"/>
		<path id="&lt;Path&gt;" class="s3" d="m442.4 470c-23.1 46.3-52.8 88-88.9 125.1-1.2 1.3-3.2-0.6-2-1.9 35.9-36.8 65.5-78.5 88.5-124.5 0.8-1.6 3.2-0.3 2.4 1.3z"/>
		<path id="&lt;Path&gt;" class="s3" d="m646.3 552.4c0.4 1.7-2.2 2.4-2.6 0.7q-12.4-53-27-105.5c-0.5-1.7 2.1-2.5 2.6-0.8q14.6 52.5 27 105.6z"/>
		<path id="&lt;Path&gt;" class="s3" d="m610.8 693.6c-27.5 35.6-69 54.7-113.9 52.6-1.8-0.1-1.8-2.9 0-2.8 44.2 2.1 84.8-16.7 111.9-51.7 1.1-1.4 3.1 0.5 2 1.9z"/>
		<path id="&lt;Path&gt;" class="s3" d="m404.9 511.8c-13.6-26.5-38.6-50.9-69.2-54.5-1.8-0.2-1.8-3 0-2.8 31.6 3.8 57.5 28.4 71.5 55.9 0.9 1.6-1.5 3-2.3 1.4z"/>
		<path id="&lt;Path&gt;" class="s3" d="m415 506.2c0.5 1.7-2.1 2.4-2.7 0.7-6.6-19-18.7-35-35-46.7-1.5-1.1-0.1-3.5 1.3-2.4 17.1 12.1 29.5 28.6 36.4 48.4z"/>
	</g>
</svg>