<svg version="1.2" xmlns="http://www.w3.org/2000/svg" viewBox="0 0 1000 1000" width="1000" height="1000">
	<title>New Project</title>
	<style>
		.s0 { fill: #e6e6e6 } 
		.s1 { fill: #d4624e } 
		.s2 { fill: #f5f1f5 } 
		.s3 { fill: #2bcd3a } 
		.s4 { fill: #481e19 } 
		.s5 { fill: #dbbd40 } 
		.s6 { fill: #c47f5f } 
		.s7 { fill: #d69ba4 } 
	</style>
	<g id="Fox">
		<path id="&lt;Path&gt;" class="s0" d="m513.6 889.7c-132.2 0-239.2-15.4-239.2-34.5 0-19 107-34.5 239.2-34.5 132.3 0 239.3 15.5 239.3 34.5 0 19.1-107 34.5-239.3 34.5z"/>
		<path id="&lt;Path&gt;" class="s1" d="m448.2 723.4l-8 15.9c-16.2 8.7-47 7-65.4 4.3-39.3-5.9-70.1-42-80.2-79-9.6-35 5.8-65.3 12.5-98.9q1.9-10 2.3-20.5c14.7-2.2 29-6.6 42.6-14.2 18.8-10.5 29.9-24 41.5-40.2 7.4 15.6 12.1 32.2 14.8 51.2 3.8 27.3 0.5 56-0.9 83.2-1.8 38.3 1 79.3 40.8 98.2z"/>
		<path id="&lt;Path&gt;" class="s2" d="m393.5 490.8c-11.6 16.2-22.7 29.7-41.5 40.2-13.6 7.6-27.9 12-42.6 14.2 1.4-26.8-3.9-55.3-12-79.7-11.2-33.6-28.8-61.6-50.4-89.2 22.1 8.7 44.2 13.6 65.2 25.5 23.1 13 41.4 30 57.6 50.8 9.8 12.6 17.7 25.1 23.7 38.2z"/>
		<path id="&lt;Path&gt;" class="s1" d="m603.5 657.7c-0.7 8.7-1.9 17.4-3.7 26.3-8.1 39.2-42.9 67.2-83 67.2h-19.9c-55.8 0-99.8-47.3-95.8-103 0.6-9.2 1.8-18.9 3.5-29 6-35.1 19.1-75.4 44.6-119l121 4.9c0 0 40.1 70.5 33.3 152.6z"/>
		<path id="&lt;Path&gt;" class="s1" d="m669.4 650.8c0.1 9.6-6.1 18.2-15.3 20.8-12.4 3.6-25.2-4.6-26.8-17.4-2.8-22.6-16.8-58-68-96.5l15.4-43.1c0 0 93.6 24 94.7 136.2z"/>
		<path id="&lt;Path&gt;" class="s1" d="m440.2 697.1l70.5-1-38.3 140.2c0.6 11.7-8.8 21.5-20.5 21.5-9.9 0-18.4-7.1-20.1-16.8z"/>
		<path id="&lt;Path&gt;" class="s1" d="m514.1 700.1l70.5-2 6.8 141.2c0.6 11.7-8.7 21.5-20.4 21.5-10 0-18.4-7.1-20.2-16.8z"/>
		<path id="&lt;Path&gt;" class="s2" d="m586.1 650.3c0 7.8-0.4 15.4-1.1 22.7-3.1 31.7-29.6 55.9-61.4 55.9-31.8 0-58.4-24.2-61.4-55.9-0.8-7.3-1.1-14.9-1.1-22.7 0-67 27.9-121.4 62.5-121.4 34.5 0 62.5 54.4 62.5 121.4z"/>
		<path id="&lt;Path&gt;" class="s3" d="m603.5 657.7c-5.9 2.8-11.8 5.3-17.5 7.4-51 18.8-93.3 10.9-124.7-3.8-28.4-13.4-47.9-32.4-56.7-42.1 6-35.1 19.1-75.4 44.6-119l121 4.9c0 0 40.1 70.5 33.3 152.6z"/>
		<path id="&lt;Path&gt;" class="s4" d="m565.8 664.2c-44.1 0.6-109.9-4.3-141.9-38.8-1.3-1.4 0.8-3.6 2.1-2.2 30.8 33.3 97.7 38.6 139.8 38 2 0 1.9 3 0 3z"/>
		<path id="&lt;Path&gt;" class="s4" d="m586.2 647.4c-26.2 13.2-64.6 6.9-92.3 1.7-1.9-0.4-1.1-3.2 0.8-2.9 25.6 4.8 65.6 11 90-1.4 1.7-0.8 3.2 1.7 1.5 2.6z"/>
		<path id="&lt;Path&gt;" class="s4" d="m570.5 532.5c-28.9 9-58.1 10.8-87.9 5.3-1.9-0.4-1-3.2 0.8-2.9 29.3 5.4 57.9 3.6 86.3-5.3 1.8-0.6 2.6 2.3 0.8 2.9z"/>
		<path id="&lt;Path&gt;" class="s4" d="m564 547.6c-25.4 2.3-55.6 6.4-80.3-1.9-1.8-0.6-1-3.5 0.8-2.8 24.3 8.1 54.3 4 79.5 1.7 1.9-0.1 1.9 2.8 0 3z"/>
		<path id="&lt;Path&gt;" class="s2" d="m673.8 579.8c10.1-0.2 20.2-1.2 30-3.3 4.5-0.9 7.8-1.6 7.8-1.6v9.6l-96.8 102-189.7-7.5-3.7-10.4 79.6-91.5c14.9 11.9 57.3 3 57.3 3 61-6.7 78.9 11.1 78.9 11.1 11.1-9.2 26.9-11.1 36.6-11.4z"/>
		<path id="&lt;Path&gt;" class="s5" d="m420.3 686.5l80.7-96.7 126.2 11.7h27l61.9-19.2-103 111.3-44.7 2.3h-32.9z"/>
		<path id="&lt;Path&gt;" class="s6" d="m654.2 601.5l-85.8 94.4h-34.9l91.3-94.4z"/>
		<path id="&lt;Path&gt;" class="s1" d="m453.2 515.8c9.6 3.5 15.8 12.9 15.1 23-3.3 53.9 13.6 88.3 26.5 104.5 8 10.1 4.9 25-6.3 31.3-8.4 4.7-18.8 3.2-25.6-3.6-53.6-53.7-48.9-109.2-40.2-139.6 3.8-13.1 17.8-20.3 30.5-15.6z"/>
		<path id="&lt;Path&gt;" class="s1" d="m353.1 213.8c74.3 13.9 92.7 95.1 93 98.2l-27.6 56.8c-5.7-30.8-22.8-98.2-67.7-137.3 0 0-32.4 83.4 46.6 180.6l-0.3 0.7c-106.7-56.7-44-199-44-199z"/>
		<path id="&lt;Path&gt;" class="s7" d="m350.8 231.5c44.9 39.1 62 106.5 67.7 137.3l-21.1 43.3c-79-97.2-46.6-180.6-46.6-180.6z"/>
		<path id="&lt;Path&gt;" class="s1" d="m593.1 167l26.6 34.5c75.3 103.1 29.1 171.5 20.6 182.4 25.8-69.7 20.5-136.9-42.8-199.2-5.5 65.5 25.2 181.4 29.3 196.5l-60.7-21c-22.1-103.9 27-193.2 27-193.2z"/>
		<path id="&lt;Path&gt;" class="s7" d="m640.3 383.9c-0.8 1.1-1.3 1.6-1.3 1.6l-12.2-4.3c-4.1-15.1-34.8-131-29.3-196.5 63.3 62.3 68.6 129.5 42.8 199.2z"/>
		<path id="&lt;Path&gt;" class="s1" d="m369.9 418.2c25.1-93.1 57.6-126.1 57.6-126.1 36.2-40.4 76.4-40 85.9-39.2q2.7 0.2 5.4 0.3c107.4 3 156 124.4 156 124.4 18.9 19.9 43.3 6.9 43.3 6.9-4.4 8.9-25.6 17.4-25.6 17.4 6.1 5 20.1-2 20.1-2-4.2 10-10.3 19.6-17.4 28.8-25.2 10.2-73 13.3-163.8-14.2 0 0-67.7 26.6-166.8 14.5 4-5.7 5.3-10.8 5.3-10.8z"/>
		<path id="&lt;Path&gt;" class="s2" d="m364.6 429c99.1 12.1 166.8-14.5 166.8-14.5 90.8 27.5 138.6 24.4 163.8 14.2-33.4 43.3-90.3 75.7-90.3 75.7q-0.5 0.3-1.1 0.6c-38.7 21.9-84.4 28.3-127.4 16.7l-30.4-8.2c-95.2-31.7-119.5-69.3-119.5-69.3 21.1 2.2 32.4-7.1 38.1-15.2z"/>
		<path id="&lt;Path&gt;" class="s4" d="m527 411.8c11.3 0.9 20 7.3 19.4 14.3-0.5 7-10.2 11.9-21.5 11-11.2-0.9-20-7.3-19.4-14.3 0.6-7 10.2-11.9 21.5-11z"/>
		<path id="&lt;Path&gt;" class="s7" d="m638 439.4c11.3 1 20 7.4 19.4 14.4-0.6 6.9-10.2 11.9-21.5 11-11.3-1-20-7.4-19.4-14.4 0.6-6.9 10.2-11.9 21.5-11z"/>
		<path id="&lt;Path&gt;" class="s7" d="m419.7 438.6c11.3 1.2 19.8 7.8 19 14.8-0.7 7-10.5 11.6-21.7 10.4-11.3-1.2-19.8-7.8-19.1-14.8 0.8-7 10.5-11.6 21.8-10.4z"/>
		<path id="&lt;Path&gt;" class="s4" d="m434.5 406.2c-1.3-11.3 3.2-21 10.2-21.9 7-0.8 13.7 7.7 15 19 1.3 11.2-3.3 21-10.2 21.8-7 0.8-13.7-7.6-15-18.9z"/>
		<path id="&lt;Path&gt;" class="s4" d="m587.5 404.4c-1.3-11.2 3.3-21 10.2-21.8 7-0.8 13.7 7.6 15 18.9 1.3 11.2-3.2 21-10.2 21.8-7 0.9-13.7-7.6-15-18.9z"/>
		<path id="&lt;Path&gt;" class="s4" d="m488 434.3c1.6-0.5 3.3 0.3 3.8 1.9 6.5 19.7 22.3 17.1 23 16.9 1.7-0.3 3.2 0.8 3.5 2.4 0.3 1.6-0.7 3.2-2.3 3.5-0.3 0-21.7 3.9-29.9-21q0 0 0 0c-0.5-1.6 0.4-3.2 1.9-3.7z"/>
		<path id="&lt;Path&gt;" class="s4" d="m440.9 732.5c-36.6-18.8-43.8-77.5-38.8-113.5 0.3-1.9 3.1-1 2.9 0.8-4.8 34.5 2.1 92 37.4 110.1 1.7 0.9 0.2 3.4-1.5 2.6z"/>
		<path id="&lt;Path&gt;" class="s4" d="m377.1 662c-0.5 1.9-3.4 1.1-2.8-0.8 18.3-59.3 14.7-138.8-30.7-185.1-1.3-1.4 0.8-3.5 2.1-2.1 46.3 47.2 50.1 127.6 31.4 188z"/>
		<path id="&lt;Path&gt;" class="s4" d="m358.4 618.7c-0.1 1.9-3.1 1.9-3 0 1-19.8 1.9-39.6 0.4-59.4-1.3-17.7-4.9-57.5-21.1-69.8-1.5-1.1-0.1-3.7 1.5-2.6 13.2 10 17.2 34.4 19.9 49.6 4.8 27.1 3.7 54.9 2.3 82.2z"/>
	</g>
</svg>