<svg version="1.2" xmlns="http://www.w3.org/2000/svg" viewBox="0 0 1000 1000" width="1000" height="1000">
	<title>New Project</title>
	<style>
		.s0 { fill: #e6e6e6 } 
		.s1 { fill: #dbbd40 } 
		.s2 { fill: #481e19 } 
		.s3 { fill: #c47f5f } 
		.s4 { fill: #dfbaa8 } 
		.s5 { fill: #d69ba4 } 
		.s6 { fill: #f5f1f5 } 
		.s7 { fill: #329293 } 
		.s8 { fill: #2bcd3a } 
	</style>
	<g id="Folder 1">
		<path id="&lt;Path&gt;" class="s0" d="m536.1 909.8c-101.3 0-183.2-11.8-183.2-26.4 0-14.6 81.9-26.4 183.2-26.4 101.4 0 183.3 11.8 183.3 26.4 0 14.6-81.9 26.4-183.3 26.4z"/>
		<path id="&lt;Path&gt;" class="s1" d="m617.2 748.5c18.8-2.4 31.6-12.5 36.7-30.9 2.5-9.4 2.7-19.2 5.9-28.4 4.6-13.3 14.2-24.8 26.3-32 6.3-3.7 12 6.1 5.7 9.8-26.7 15.8-19.3 42.3-31.3 66-8.5 16.9-25.3 24.5-43.3 26.8-7.2 0.9-7.1-10.4 0-11.3z"/>
		<path id="&lt;Path&gt;" class="s2" d="m759.2 623.6c-0.7 1.1-1.7 2.1-3.2 2.7-3.8 1.5-7.2 3.5-10.6 5.7 1.8-1.2 3.6 5.1 3.3 6.1-0.6 2.6-3.8 4.2-5.6 6-5.3 5.5-9.9 11.4-15.8 16.3-8.7 7-20 13.1-31.1 8.7-7.1-2.8-13.5-9-14.9-16.7-2-11 4.7-19.4 13.3-25.3 18.9-13 39.7-16.2 62.1-14.4 6.2 0.5 7.1 8.8 2.5 10.9z"/>
		<path id="&lt;Path&gt;" class="s1" d="m502.6 746.1v112.1h-32.2l-4.5-83.6-1.5-28.5z"/>
		<path id="&lt;Path&gt;" class="s2" d="m502.6 858.2v17.2c0 8.7-7 15.7-15.6 15.7-8.4 0-15.2-6.5-15.7-14.8l-0.9-18.1z"/>
		<path id="&lt;Path&gt;" class="s2" d="m598.8 858.2v17.2c0 8.7-7 15.7-15.6 15.7-8.4 0-15.2-6.5-15.7-14.8l-0.9-18.1z"/>
		<path id="&lt;Path&gt;" class="s1" d="m598.8 746.1v112.1h-32.2l-3.5-65.9-2.5-46.2z"/>
		<path id="&lt;Path&gt;" class="s3" d="m570.3 194.9l-7.1-7.1 42.1-44.2 9.2 12z"/>
		<path id="&lt;Path&gt;" class="s3" d="m619.3 163.1c-11.5 0-20.7-9.3-20.7-20.8 0-11.4 9.2-20.7 20.7-20.7 11.4 0 20.7 9.3 20.7 20.7 0 11.5-9.3 20.8-20.7 20.8z"/>
		<path id="&lt;Path&gt;" class="s3" d="m541.2 173.7l9.2-49.6 12.8 1.4-10.3 47.8z"/>
		<path id="&lt;Path&gt;" class="s3" d="m559.6 132.4c-11.4 0-20.7-9.2-20.7-20.7 0-11.4 9.3-20.7 20.7-20.7 11.5 0 20.7 9.3 20.7 20.7 0 11.5-9.2 20.7-20.7 20.7z"/>
		<path id="&lt;Path&gt;" class="s1" d="m643.3 655c-0.6 30.9-3.7 57.5-9.5 78.8q-0.7 2.4-1.5 4.7c-10.6 30.8-39.4 51.8-72.2 54-28.9 2-73.3 0.6-98.7-21.4q-5.5-4.7-9.6-10.7c-8.5-12.4-10.7-27.9-7.8-42.5l9.6-47.5 38.6-191.9c1.4-6.6 4.3-29.9 7.8-60.5v-0.1c1.4-13.2 3.1-27.9 4.8-43.2 9-82.6 19.4-183.7 19.4-183.7l42.6 5.8c9.6 33.8 18.5 67.8 26.6 101.5 6.7 28 13 55.8 18.4 83.1 21.1 103.9 33.1 200.5 31.5 273.6z"/>
		<path id="&lt;Path&gt;" class="s3" d="m611.8 381.4c-2.6 2.9-5.7 5.1-9.5 6.2-6.9 2.2-19.7-1.7-22.3-9.1-2.5-7 1.8-16.3 0.9-23.8-2.1-18.3-24-25.7-15.5-45.5 3.8-9.1 10.6-13.4 20.3-12.7 2.6 0.2 5.1 0.9 7.7 1.8 6.7 28 13 55.8 18.4 83.1z"/>
		<path id="&lt;Path&gt;" class="s3" d="m544.9 389.2c-0.4 6-4.2 10.2-6.4 15.8-1.6 4-1.1 10.5-2.8 13.9-5.8 11.5-26.9 2.9-35.2-0.7-0.2-0.1-0.4-0.2-0.5-0.2v-0.1c1.4-13.2 3.1-27.9 4.8-43.2 5.7-4.7 14.4-7.7 21.9-6.7 9.8 1.1 18.8 10.6 18.2 21.2z"/>
		<path id="&lt;Path&gt;" class="s3" d="m485.6 712.4c-1.7 9 7.2 13.6 10.3 21.1 2.4 5.7 2.7 14.2-0.3 19.8-4.2 7.3-14.7 9.8-22 13-3.8 1.7-7.9 3.4-12.2 4.8q-5.5-4.7-9.6-10.7c-8.5-12.4-10.7-27.9-7.8-42.5l9.6-47.5c11.6-5.6 25.1-7.4 34.7-2.6 7.4 3.8 12.1 13.6 10.5 21.8-1.8 8.6-11.6 14-13.2 22.8z"/>
		<path id="&lt;Path&gt;" class="s3" d="m643.3 655c-0.6 30.9-3.7 57.5-9.5 78.8q-0.7 2.4-1.5 4.7c-7.4-1.2-14.1-1.3-23.4 3-13.2 6.2-21.5 14.9-37.2 11.8-9.1-1.8-30.6-13-16.4-23.2 9.6-6.9 23.7-1.4 34.3-5.8 9.9-4.1 15.2-14.2 13.1-24.6-1.2-6.2-6.4-10.2-4.2-16.9 2.4-6.9 10.6-11.3 16.4-14.5 8.5-4.5 18.3-10.3 28.4-13.3z"/>
		<path id="&lt;Path&gt;" class="s1" d="m413.9 235.3l105.2-63.5c13-7.7 29.3-8.6 42.4-1 20 11.7 26 37.6 13.6 56.8l-52.6 81.6c-4.3 6.7-7.8 13.8-11.3 21-12.8 26.5-41.3 44-73.5 40.2-32.9-3.9-59.3-31-62.6-63.9-3.1-31 13.5-58.3 38.8-71.2z"/>
		<path id="&lt;Path&gt;" class="s4" d="m370 275.3c5.7-16.4 20.7-28.7 38.1-28.9q2 0 4 0.2c3.7 0.3 7.2 1 10.5 2.2 18 6.2 37 7.8 55.9 4.7 3.4-0.6 7-0.8 10.6-0.5 7.1 0.6 13.6 2.9 19.2 6.4 9.9 6.2 15.8 17 17.8 28.4 1 5.9 1.3 12 0.9 18.3 0 0.4 0 0.7 0 1.1-3.7 43-42.6 74.8-87 71.1-44.1-3.7-77-41.1-73.9-83.7v-0.9c0.6-6.4 1.9-12.5 3.9-18.4z"/>
		<path id="&lt;Path&gt;" class="s5" d="m455.5 240.3c-7.7 0-13.8-3.9-13.8-8.6 0-4.8 6.1-8.6 13.8-8.6 7.6 0 13.8 3.8 13.8 8.6 0 4.7-6.2 8.6-13.8 8.6z"/>
		<path id="&lt;Path&gt;" class="s5" d="m548.2 256.5c0.3 4.7-5.6 8.9-13.2 9.4-7.7 0.5-14.1-2.9-14.4-7.6-0.3-4.8 5.6-9 13.3-9.5 7.6-0.5 14 3 14.3 7.7z"/>
		<path id="&lt;Path&gt;" class="s2" d="m539 244.3c-4.7-0.7-7.5-7.5-6.2-15 1.2-7.6 5.9-13.1 10.6-12.3 4.7 0.7 7.5 7.4 6.3 15-1.2 7.5-6 13.1-10.7 12.3z"/>
		<path id="&lt;Path&gt;" class="s2" d="m496.7 228.4c-4.7-0.7-7.5-7.5-6.3-15 1.2-7.6 6-13.1 10.7-12.3 4.6 0.7 7.4 7.4 6.2 15-1.2 7.5-5.9 13.1-10.6 12.3z"/>
		<path id="&lt;Path&gt;" class="s2" d="m469.1 329.5q0 0.1 0 0.1c-6.2 16.6-20.6 13.3-20.7 13.3-1.1-0.3-1.8-1.4-1.5-2.5 0.3-1 1.3-1.7 2.4-1.4 0.5 0.1 11.1 2.3 16.1-10.8 0.3-1 1.5-1.6 2.5-1.2 1.1 0.4 1.6 1.5 1.2 2.5z"/>
		<path id="&lt;Path&gt;" class="s5" d="m482.2 292c-6.8 0-12.3-5.9-12.3-13.2 0-7.4 5.5-13.3 12.3-13.3 6.8 0 12.2 5.9 12.2 13.3 0 7.3-5.4 13.2-12.2 13.2z"/>
		<path id="&lt;Path&gt;" class="s5" d="m397.7 292c-6.8 0-12.3-5.9-12.3-13.2 0-7.4 5.5-13.3 12.3-13.3 6.8 0 12.2 5.9 12.2 13.3 0 7.3-5.4 13.2-12.2 13.2z"/>
		<path id="&lt;Path&gt;" class="s1" d="m579.8 193.9c0 0 74 4.2 105.5 74.3 0 0-68.7 8.9-110.1-57.7z"/>
		<path id="&lt;Path&gt;" class="s1" d="m519.2 180.1c-78-8.4-99.8-74.1-99.8-74.1 76.8-2.1 112.8 62.8 112.8 62.8z"/>
		<path id="&lt;Path&gt;" class="s2" d="m570.3 241c-11.1 18.9-25.2 33.5-40.4 49.1-1.2 1.3-3.2-0.7-2-2 15-15.4 29-29.9 39.9-48.5 1-1.6 3.4-0.1 2.5 1.4z"/>
		<path id="&lt;Path&gt;" class="s2" d="m535.3 169c-9 1.6-17.2 5.2-24.5 10.8-1.4 1.1-3.4-0.9-2-2 7.7-5.9 16.2-9.9 25.8-11.5 1.8-0.4 2.5 2.4 0.7 2.7z"/>
		<path id="&lt;Path&gt;" class="s2" d="m557.1 99.5c-13.7-2-14.4 18.9-6.5 25.3 1.4 1.1-0.6 3.1-2 2-10.6-8.5-6.8-32.4 9.3-30 1.8 0.3 1 3-0.8 2.7z"/>
		<path id="&lt;Path&gt;" class="s2" d="m619.8 127.5c-10.5 0.2-17.7 9.7-15.1 20 0.4 1.7-2.3 2.5-2.7 0.7-3.1-12.1 5.4-23.2 17.8-23.5 1.9-0.1 1.9 2.7 0 2.8z"/>
		<path id="&lt;Path&gt;" class="s2" d="m665.3 258.4c-15.4-28.7-43.7-43-73.4-53-1.8-0.6-1-3.3 0.7-2.8 30.4 10.2 59.4 25 75.1 54.3 0.9 1.6-1.6 3.1-2.4 1.5z"/>
		<path id="&lt;Path&gt;" class="s2" d="m513.9 162.4c-9.3-13.4-21-24.6-35.5-32.3-12.7-6.8-27-9-39.6-15.7-1.6-0.9-0.1-3.3 1.5-2.5 15.4 8.3 32.7 10.6 47.6 20.5 11.4 7.6 20.7 17.3 28.4 28.6 1.1 1.5-1.4 2.9-2.4 1.4z"/>
		<path id="&lt;Path&gt;" class="s6" d="m525.9 450.1c11.5 8.7 24.3 8.3 38.2 0v182.5c0 5.8-2.2 11.5-6.5 15.5-6.5 6-12.8 7.2-19.2 4.3-7.2-3.3-11.4-11-11.5-19z"/>
		<path id="&lt;Path&gt;" class="s7" d="m525.9 469.5c11.5 8.7 24.3 8.3 38.2 0v182.5c0 5.8-2.2 11.5-6.5 15.5-6.5 6-12.8 7.2-19.2 4.3-7.2-3.3-11.4-11-11.5-19z"/>
		<path id="&lt;Path&gt;" class="s8" d="m564.1 469.5l174-50.9v184.6l-176.1 53.8z"/>
		<path id="&lt;Path&gt;" class="s6" d="m547.8 473.8c0 0-1.4-52.4 101.9-48.8 0 0 41.6 5.4 67.2-19.8q0.7-0.7 1.4-1.4l8.5 19.1-162.7 46.6z"/>
		<path id="&lt;Path&gt;" class="s8" d="m528 657l-176.1-53.8v-184.6l174 50.9z"/>
		<path id="&lt;Path&gt;" class="s6" d="m525.9 469.5l-162.7-46.6 8.5-19.1q0.7 0.7 1.4 1.4c25.6 25.2 67.2 19.8 67.2 19.8 103.3-3.6 101.9 48.8 101.9 48.8z"/>
		<path id="&lt;Path&gt;" class="s1" d="m349.8 542.4c-10.9 0-19.8-8.9-19.8-19.8 0-11 8.9-19.8 19.8-19.8 11 0 19.8 8.8 19.8 19.8 0 10.9-8.8 19.8-19.8 19.8z"/>
		<path id="&lt;Path&gt;" class="s2" d="m374.6 525.4c0 11 3.8 19.8-7.1 19.8-11 0-19.8-8.8-19.8-19.8 0-10.9 8.8-19.8 19.8-19.8 10.9 0 7.1 8.9 7.1 19.8z"/>
		<path id="&lt;Path&gt;" class="s1" d="m735.9 542.4c-10.9 0-19.8-8.9-19.8-19.8 0-11 8.9-19.8 19.8-19.8 11 0 19.8 8.8 19.8 19.8 0 10.9-8.8 19.8-19.8 19.8z"/>
		<path id="&lt;Path&gt;" class="s2" d="m718.3 505.6c10.9 0 19.8 8.9 19.8 19.8 0 11-8.9 19.8-19.8 19.8-11 0-7.1-8.8-7.1-19.8 0-10.9-3.9-19.8 7.1-19.8z"/>
		<path id="&lt;Path&gt;" class="s2" d="m584.9 787.7c-31.3 11.6-76.6 9.9-106-6.2-1.6-0.9-0.2-3.4 1.4-2.5 28.2 15.4 73.7 17.1 103.9 6 1.7-0.6 2.4 2.1 0.7 2.7z"/>
	</g>
</svg>