<svg version="1.2" xmlns="http://www.w3.org/2000/svg" viewBox="0 0 1000 1000" width="1000" height="1000">
	<title>New Project</title>
	<style>
		.s0 { fill: #cfc12a } 
		.s1 { fill: #f7db2f } 
		.s2 { fill: #2bcd3a } 
		.s3 { fill: #d86a0b } 
		.s4 { fill: #fcac2b } 
		.s5 { fill: #ffc04b } 
		.s6 { fill: #5b462b } 
		.s7 { fill: #ffffff } 
		.s8 { fill: none;stroke: #5b462b;stroke-width: 5 } 
		.s9 { fill: #f9e3c2 } 
	</style>
	<g id="Lion">
		<path id="&lt;Path&gt;" class="s0" d="m709 569.5c-3.4 108.3-27.3 196.4-53.5 196.8-26.3 0.4-44.8-87.1-41.5-195.4 3.4-108.3 27.3-196.4 53.5-196.8 26.3-0.4 44.8 87.1 41.5 195.4z"/>
		<path id="&lt;Path&gt;" class="s1" d="m749.4 607.5c-17.9 106.6-53.2 187.8-78.8 181.4-25.5-6.4-31.7-98-13.7-204.6 17.9-106.6 53.2-187.9 78.8-181.5 25.5 6.4 31.7 98 13.7 204.7z"/>
		<path id="&lt;Path&gt;" class="s0" d="m796 595.7c-34.5 99.6-81.7 168.9-105.2 154.7-23.6-14.2-14.7-106.5 19.9-206.2 34.6-99.6 81.7-168.9 105.2-154.7 23.6 14.2 14.7 106.5-19.9 206.2z"/>
		<path id="&lt;Path&gt;" class="s1" d="m821.1 653.7c-47.1 89.9-102.4 146.5-123.3 126.3-21-20.2 0.2-109.5 47.3-199.4 47.2-89.9 102.4-146.5 123.4-126.3 21 20.2-0.3 109.5-47.4 199.4z"/>
		<path id="&lt;Path&gt;" class="s1" d="m396.5 621.2c-12.8 25.9-30.1 45.7-45.7 54.1l-64 42.9c-13.2 12.2-41.5 20.3-74.1 19.7-45.1-0.8-81.3-17.9-80.9-38.2 0.3-14.2 18.5-26.2 44.8-31.8-39.6-27.3-61.7-61.6-50.5-81.6 7.9-13.9 30.2-17.5 58-11.7-14.5-31.2-17-58.6-4.1-67.3 11.7-7.9 32.8 1.7 54.1 22.2 1.1-28.4 9.4-49.1 22.9-51.6 14.2-2.6 30.3 15.4 41.7 43.9 7.7-17.8 17.9-28.7 28.6-28.1 14.9 0.8 26.5 23.5 30.5 55.5 15.2-15.6 30.9-22.8 41.9-17.4 18.2 9 16.8 49-3.2 89.4z"/>
		<path id="&lt;Path&gt;" class="s2" d="m500.4 823.4c-161.1 0-291.3-33.7-291.3-75.4 0-41.7 130.2-75.5 291.3-75.5 161.1 0 291.3 33.8 291.3 75.5 0 41.7-130.2 75.4-291.3 75.4z"/>
		<path id="&lt;Path&gt;" class="s3" d="m350.2 643.1c-4.9 0.8-9.9 0.5-14.8-0.3-22.8-4-36.4-24.2-41.6-45.5-2.3-9.5-3.4-19.3-3.7-29-0.2-6.4 0.4-12.9-0.1-19.2-1.1-12-6.6-26.7-20.5-28-6.2-0.6-6.3-10.5 0-9.9 17.8 1.8 27.2 16.6 29.7 33.1 0.7 4.5 0.7 8.6 0.6 13.2-0.2 10.6 0.3 21.3 2.3 31.7 2.4 12.7 6.9 25.6 16.6 34.7 5.8 5.5 12.5 8.4 20.4 9.6-0.7-0.1 0.8 0.1 1.5 0.1q0.9 0.1 1.8 0.1 1.6 0.1 3.3 0c0.8 0 1.5-0.1 2.3-0.2 0.7 0-1.6 0.3-0.4 0.1 6.2-1.1 8.8 8.4 2.6 9.5z"/>
		<path id="&lt;Path&gt;" class="s3" d="m272.2 528c-11.8 7.8-26-0.6-35.4-8.2-4.9-3.9-9.3-8.3-13.5-12.9-0.1-0.1-0.8-1-1.6-2-1.5-2-0.4-4.8 2-5.2 8.8-1.5 16.8-1.5 21.4-1.2 2.2 0.1 3.9-1.8 3.4-3.9-0.5-2.2 1.3-4.2 3.5-4 9.6 1.1 19.3 4.4 25.3 12.2 3.1 4 4.3 8.3 3.8 12.3-0.6 5-3.7 9.5-8.9 12.9z"/>
		<path id="&lt;Path&gt;" class="s4" d="m424.5 666.4c0 42.3-24.6 76.6-55 76.6-3.3 0-6.5-0.4-9.7-1.2-4.1 10.1-15.6 17.3-29.3 17.3-17.1 0-30.9-11.3-30.9-25.3 0-12.1 10.3-22.2 24.2-24.8-5.9-12.2-9.4-26.8-9.4-42.6 0-42.4 24.7-76.7 55.1-76.7 30.4 0 55 34.3 55 76.7z"/>
		<path id="&lt;Path&gt;" class="s4" d="m630.5 589.7c30.3 0 55 34.3 55 76.7 0 15.8-3.4 30.4-9.3 42.6 13.8 2.6 24.1 12.7 24.1 24.8 0 14-13.8 25.3-30.9 25.3-13.6 0-25.2-7.2-29.3-17.3-3.1 0.8-6.4 1.2-9.6 1.2-30.4 0-55.1-34.3-55.1-76.6 0-42.4 24.7-76.7 55.1-76.7z"/>
		<path id="&lt;Path&gt;" class="s5" d="m664.1 780.9l-61.6 19.7c-7.5 2.3-15.4-1.8-17.7-9.3l-0.4-1.3q-8.6 1.6-17.7 2.8c1.6-11.1 2.5-22.9 2.5-35 0-73.1-32.4-132.4-72.3-132.4-40 0-72.4 59.3-72.4 132.4 0 12.1 0.9 24 2.6 35.2q-9.6-1.3-18.6-3c-2.7 6.7-10.2 10.3-17.3 8.1l-61.6-19.7c-7.6-2.4-11.6-10.7-8.9-18.2l6.5-17.7q0.5-2.5 1.8-4.8l76.3-239.7 204.7-1.1 54.6 243q0 0.1 0 0.2h0.1l8.3 22.6c2.7 7.5-1.3 15.8-8.9 18.2z"/>
		<path id="&lt;Path&gt;" class="s3" d="m711.3 417.6c6.1 7.1 9.8 16.2 9.8 26.1 0 23.1-20.1 41.9-44.8 41.9q-2.9 0-5.6-0.4c2.6 5.9 4.1 12.4 4.1 19.2 0 27.2-23.6 49.3-52.7 49.3-14.3 0-27.3-5.4-36.8-14.1-8.9 28.8-37.3 49.9-71 49.9-35.2 0-64.6-23-72-53.8-9.1 9.3-22.2 15.2-36.8 15.2-27.4 0-49.7-20.8-49.7-46.5q0-3.6 0.6-7.1c-4.4 1.3-9.1 2.1-13.9 2.1-24.7 0-44.8-18.8-44.8-41.9 0-12.7 6.1-24.1 15.6-31.7-26.3-4.6-46.1-26.2-46.1-52 0-26.8 21.3-49 49-52.5-4.3-7-6.7-15.2-6.7-23.9 0-27.2 23.6-49.2 52.7-49.2 12.7 0 24.4 4.2 33.5 11.2-1-4.5-1.5-9.2-1.5-14 0-38.1 33.1-69 73.8-69 32.8 0 60.5 19.9 70.2 47.4 7.9-6.6 18.3-10.6 29.8-10.6 24.7 0 44.8 18.7 44.8 41.9q0 1.7-0.2 3.3c7.8-4.2 16.7-6.6 26.3-6.6 29.1 0 52.7 22.1 52.7 49.3 0 7.8-2 15.1-5.4 21.7 28.8 1.4 51.6 23.7 51.6 51 0 18.6-10.6 34.8-26.5 43.8z"/>
		<path id="&lt;Path&gt;" class="s4" d="m557.2 265l46.4-12.3c7.8-2.1 15.8 3.1 18.5 12l14.5 49.2c-49.8 7.8-79.4-48.9-79.4-48.9z"/>
		<path id="&lt;Path&gt;" class="s4" d="m356.4 329.8l6.8-50.9c1.2-9.2 8.4-15.6 16.5-14.7l47.6 5c0 0-20.4 60.6-70.9 60.6z"/>
		<path id="&lt;Path&gt;" class="s5" d="m501.1 537.4c-34.6 0.6-72.4-9.8-101.2-26.3-37.6-21.5-61.7-59.9-67.6-98.5-7-45.3 14.8-83.1 50-114.9 8.1-7.2 16.7-14.1 25.9-20.3 14.2-9.6 30-17.4 46.6-23.2 37.6-13.2 71.6-11.1 107.6 5.1 66.2 29.8 121.9 94.9 110.8 163-5.5 33.9-26.7 66.3-58.2 86.3-32.8 20.9-74.1 28.1-113.9 28.8z"/>
		<path id="&lt;Path&gt;" class="s4" d="m662.5 455.3c-8.4 16.4-20.2 31.2-34.9 43.2-30.6 24.8-71 36.4-110.6 41-34.4 4-73.1-3.2-103.5-17.4-39.7-18.7-67.4-56.2-77.2-95.7-10.1-40.8 2.4-77.6 27.2-110.6-14.6 26.9-20.4 56.2-12.5 87.8 9.8 39.6 37.6 77.1 77.2 95.7 30.4 14.3 69.1 21.4 103.5 17.4 39.6-4.6 80-16.1 110.6-41 7.5-6.1 14.3-13 20.2-20.4z"/>
		<path id="&lt;Path&gt;" class="s6" d="m427.8 383.1c-7.9 0-14.3-6.4-14.3-14.3 0-7.9 6.4-14.3 14.3-14.3 7.9 0 14.3 6.4 14.3 14.3 0 7.9-6.4 14.3-14.3 14.3z"/>
		<path id="&lt;Path&gt;" class="s7" d="m434.6 367.4c-1.8 0-3.2-1.5-3.2-3.2 0-1.8 1.4-3.2 3.2-3.2 1.8 0 3.2 1.4 3.2 3.2 0 1.7-1.4 3.2-3.2 3.2z"/>
		<path id="&lt;Path&gt;" class="s6" d="m585.7 381.1c-7.9 0-14.3-6.4-14.3-14.3 0-7.9 6.4-14.3 14.3-14.3 7.9 0 14.3 6.4 14.3 14.3 0 7.9-6.4 14.3-14.3 14.3z"/>
		<path id="&lt;Path&gt;" class="s7" d="m594.8 364.7c-1.7 0-3.1-1.4-3.1-3.2 0-1.8 1.4-3.2 3.1-3.2 1.8 0 3.2 1.4 3.2 3.2 0 1.8-1.4 3.2-3.2 3.2z"/>
		<path id="&lt;Path&gt;" class="s7" d="m511.4 493.3c-46.3 0-83.7-22.8-83.7-51 0-28.1 37.4-50.9 83.7-50.9 46.2 0 83.6 22.8 83.6 50.9 0 28.2-37.4 51-83.6 51z"/>
		<path id="&lt;Path&gt;" class="s6" d="m498 381.1h24.2c7.3 0 10.9 8.3 5.7 13.1l-12.1 10.9c-3.2 2.9-8.2 2.9-11.4 0l-12.1-10.9c-5.2-4.8-1.6-13.1 5.7-13.1z"/>
		<path id="&lt;Path&gt;" class="s8" d="m510.1 396.7l0.3 30.1"/>
		<path id="&lt;Path&gt;" class="s6" d="m455.1 421.5c4.6 3.6 9.2 6.8 14 9.1 4.8 2.3 9.7 3.7 14.6 3.7 5 0 9.9-1.4 14.6-3.8 4.8-2.4 9.4-5.6 14.2-9-2.6 5.3-6.3 10-11.2 13.7-4.8 3.7-11.1 6.2-17.5 6.1-6.5 0.1-12.8-2.4-17.6-6-4.9-3.6-8.8-8.3-11.1-13.8z"/>
		<path id="&lt;Path&gt;" class="s6" d="m507.7 421.5c4.6 3.6 9.2 6.7 14 9 4.8 2.4 9.7 3.8 14.7 3.7 4.9 0.1 9.8-1.4 14.6-3.8 4.8-2.3 9.3-5.6 14.1-8.9-2.6 5.2-6.3 9.9-11.2 13.6-4.8 3.7-11 6.2-17.5 6.2-6.5 0-12.7-2.4-17.6-6-4.9-3.7-8.8-8.4-11.1-13.8z"/>
		<path id="&lt;Path&gt;" class="s4" d="m549.2 402.6c-1.4 0-2.5-1.1-2.5-2.5 0-1.4 1.1-2.5 2.5-2.5 1.4 0 2.5 1.1 2.5 2.5 0 1.4-1.1 2.5-2.5 2.5z"/>
		<path id="&lt;Path&gt;" class="s4" d="m537.8 404.8c-1.4 0-2.5-1.2-2.5-2.5 0-1.4 1.1-2.6 2.5-2.6 1.4 0 2.5 1.2 2.5 2.6 0 1.3-1.1 2.5-2.5 2.5z"/>
		<path id="&lt;Path&gt;" class="s4" d="m542.8 411.9c-1.4 0-2.5-1.1-2.5-2.5 0-1.4 1.1-2.5 2.5-2.5 1.4 0 2.5 1.1 2.5 2.5 0 1.4-1.1 2.5-2.5 2.5z"/>
		<path id="&lt;Path&gt;" class="s4" d="m534.2 418.4c-1.4 0-2.5-1.1-2.5-2.5 0-1.4 1.1-2.5 2.5-2.5 1.4 0 2.5 1.1 2.5 2.5 0 1.4-1.1 2.5-2.5 2.5z"/>
		<path id="&lt;Path&gt;" class="s4" d="m555 411.2c-1.4 0-2.5-1.1-2.5-2.5 0-1.4 1.1-2.5 2.5-2.5 1.4 0 2.5 1.1 2.5 2.5 0 1.4-1.1 2.5-2.5 2.5z"/>
		<path id="&lt;Path&gt;" class="s4" d="m547.8 419.1c-1.4 0-2.5-1.1-2.5-2.5 0-1.4 1.1-2.5 2.5-2.5 1.4 0 2.5 1.1 2.5 2.5 0 1.4-1.1 2.5-2.5 2.5z"/>
		<path id="&lt;Path&gt;" class="s4" d="m474.4 402.6c-1.4 0-2.5-1.1-2.5-2.5 0-1.4 1.1-2.5 2.5-2.5 1.4 0 2.5 1.1 2.5 2.5 0 1.4-1.1 2.5-2.5 2.5z"/>
		<path id="&lt;Path&gt;" class="s4" d="m485.8 404.8c-1.4 0-2.5-1.2-2.5-2.5 0-1.4 1.1-2.6 2.5-2.6 1.4 0 2.5 1.2 2.5 2.6 0 1.3-1.1 2.5-2.5 2.5z"/>
		<path id="&lt;Path&gt;" class="s4" d="m480.8 411.9c-1.4 0-2.5-1.1-2.5-2.5 0-1.4 1.1-2.5 2.5-2.5 1.4 0 2.5 1.1 2.5 2.5 0 1.4-1.1 2.5-2.5 2.5z"/>
		<path id="&lt;Path&gt;" class="s4" d="m489.4 418.4c-1.4 0-2.5-1.1-2.5-2.5 0-1.4 1.1-2.5 2.5-2.5 1.4 0 2.5 1.1 2.5 2.5 0 1.4-1.1 2.5-2.5 2.5z"/>
		<path id="&lt;Path&gt;" class="s4" d="m468.6 411.2c-1.4 0-2.5-1.1-2.5-2.5 0-1.4 1.1-2.5 2.5-2.5 1.4 0 2.5 1.1 2.5 2.5 0 1.4-1.1 2.5-2.5 2.5z"/>
		<path id="&lt;Path&gt;" class="s4" d="m475.8 419.1c-1.4 0-2.5-1.1-2.5-2.5 0-1.4 1.1-2.5 2.5-2.5 1.4 0 2.5 1.1 2.5 2.5 0 1.4-1.1 2.5-2.5 2.5z"/>
		<path id="&lt;Path&gt;" class="s3" d="m427.6 670.7c-0.2 10.2-1.2 20.2-2.2 30.2-1 10.1-2.4 20.1-3.9 30-3.1 19.9-6.7 39.7-11.8 59.3v0.3l-0.1 0.1c-0.4 0.6-0.8 1.2-1.3 1.7q-0.7 0.9-1.4 1.6c-1.1 1-2.2 2-3.6 2.5 1.1-1 1.8-2.1 2.5-3.3q0.5-0.9 0.9-1.8c0.2-0.6 0.5-1.2 0.7-1.8l-0.1 0.3c1.3-20.2 4-40.1 7.3-60 1.7-9.9 3.5-19.8 5.6-29.7 2.2-9.8 4.5-19.7 7.4-29.4z"/>
		<path id="&lt;Path&gt;" class="s3" d="m339.8 781.7c0.9-2.1 1.8-4 2.8-6q1.4-3 3-5.9 3.1-5.8 6.6-11.3-2.3 6.1-4 12.4-0.9 3.1-1.6 6.2c-0.5 2.1-1 4.2-1.4 6.2z"/>
		<path id="&lt;Path&gt;" class="s3" d="m371.5 792.2c0.8-1.9 1.6-3.9 2.4-5.9q1.2-3 2.2-6.1 2.2-6.1 3.8-12.4-0.2 6.5-1 13-0.4 3.3-0.9 6.6c-0.4 2.2-0.7 4.3-1.2 6.5z"/>
		<path id="&lt;Path&gt;" class="s3" d="m564.9 670.7c3 9.9 5.3 20 7.6 30 2.2 10.1 4.1 20.2 5.8 30.3 3.5 20.3 6.3 40.7 7.8 61.3l-0.1-0.3c0.2 0.5 0.5 1.2 0.7 1.8q0.4 0.9 0.9 1.8c0.7 1.1 1.4 2.3 2.4 3.2-1.3-0.5-2.5-1.4-3.5-2.4q-0.8-0.8-1.4-1.6c-0.5-0.6-0.9-1.1-1.3-1.8h-0.1l-0.1-0.3c-5.1-20-9-40.2-12.2-60.5-1.6-10.2-3-20.4-4.1-30.6-1.1-10.3-2.1-20.5-2.4-30.9z"/>
		<path id="&lt;Path&gt;" class="s3" d="m648.2 785.8c-0.4-2-0.9-4.1-1.4-6.2q-0.7-3.1-1.6-6.3-1.7-6.2-4-12.3 3.5 5.5 6.6 11.3 1.5 2.9 3 5.9c1 1.9 1.9 3.9 2.8 6z"/>
		<path id="&lt;Path&gt;" class="s3" d="m616.6 796.4c-0.5-2.2-0.9-4.4-1.2-6.6q-0.5-3.2-0.9-6.5-0.8-6.5-1-13 1.6 6.3 3.7 12.4 1.1 3 2.3 6c0.7 2 1.6 4.1 2.4 5.9z"/>
		<path id="&lt;Path&gt;" class="s9" d="m569.2 757.8c0 12.1-0.9 23.9-2.5 35-21.5 3-45.3 4.7-70.4 4.7-24.7 0-48.1-1.6-69.2-4.5-1.7-11.2-2.6-23.1-2.6-35.2 0-73.1 32.4-132.4 72.4-132.4 39.9 0 72.3 59.3 72.3 132.4z"/>
	</g>
</svg>