<svg version="1.2" xmlns="http://www.w3.org/2000/svg" viewBox="0 0 1000 1000" width="1000" height="1000">
	<title>New Project</title>
	<style>
		.s0 { fill: #2bcd3a } 
		.s1 { fill: #f7db2f } 
		.s2 { fill: #ba5102 } 
		.s3 { fill: #d86a0b } 
		.s4 { fill: #873b03 } 
		.s5 { fill: #ffc04b } 
		.s6 { fill: #5b462b } 
		.s7 { fill: #ffffff } 
		.s8 { fill: none;stroke: #5b462b;stroke-width: 6 } 
	</style>
	<g id="Monkey">
		<path id="&lt;Path&gt;" class="s0" d="m368.5 635.4c-11.4 23.1-26.8 40.7-40.7 48.2l-57 38.2c-11.8 10.9-37.1 18.1-66.1 17.6-40.1-0.8-72.4-16-72-34.1 0.2-12.6 16.4-23.3 39.9-28.3-35.3-24.3-55-54.9-45-72.6 7-12.5 26.9-15.7 51.7-10.5-13-27.8-15.2-52.2-3.7-60 10.4-7 29.3 1.5 48.2 19.8 1-25.3 8.4-43.7 20.4-45.9 12.7-2.4 27 13.7 37.1 39.1 6.9-15.9 16-25.6 25.5-25.1 13.3 0.7 23.6 21 27.2 49.5 13.5-13.9 27.5-20.4 37.4-15.5 16.1 8 14.9 43.6-2.9 79.6z"/>
		<path id="&lt;Path&gt;" class="s0" d="m522.5 441.9c15.8-7.8 38.3 2.6 59.9 24.9 5.8-45.8 22.3-78.3 43.6-79.4 15.3-0.9 30 14.7 41 40.2 16.3-40.7 39.2-66.5 59.5-62.7 19.2 3.6 31.2 33 32.8 73.6 30.3-29.3 60.5-42.9 77.2-31.6 18.4 12.4 15 51.6-5.8 96.1 39.7-8.3 71.6-3.1 82.9 16.8 16 28.5-15.6 77.5-72.2 116.5 37.7 8 63.6 25.2 64 45.5 0.6 29-51.2 53.4-115.5 54.6-46.6 0.9-87.1-10.7-106-28.2l-91.5-61.2c-22.2-12.1-47-40.4-65.3-77.4-28.5-57.7-30.5-114.8-4.6-127.7z"/>
		<path id="&lt;Path&gt;" class="s1" d="m469 830.5c-170.6 0-308.5-36.6-308.5-81.7 0-45.2 137.9-81.8 308.5-81.8 170.6 0 308.5 36.6 308.5 81.8 0 45.1-137.9 81.7-308.5 81.7z"/>
		<path id="&lt;Path&gt;" class="s2" d="m607 623.1c2.8 0.1 5.5 0.1 8.2 0 0.3 0 3.4-0.4 2-0.2-1.6 0.3 0.8-0.2 0.9-0.2 1.9-0.4 3.7-0.9 5.5-1.5-2.9 1 0.9-0.7 2-1.2 2-1.1-1.4 1.5 1.5-1.3 0.5-0.5 1-1.1 1.6-1.6-0.1 0-1.7 2.3-0.8 0.8 0.9-1.3 1.6-2.6 2.4-4 1-1.9-0.9 2.6-0.2 0.5 0.2-0.8 0.5-1.6 0.7-2.3q0.6-2.2 1.1-4.3c0.1-0.4 0.6-4 0.3-1.8-0.2 2 0-0.2 0-0.5 0.3-3.5 0.4-7 0.2-10.5-0.1-4-0.5-7.9-0.9-11.9-0.3-2.6 0.3 2.3 0-0.3q-0.2-1.2-0.4-2.3-0.4-3.1-1-6.1c-2.3-13.2-5.6-26.1-7.7-39.3-2.6-15.9-2.4-31.5 1.2-47.4 7.9-34.7 34.6-69.1 73.8-64.8 36.7 4.1 66.8 38.4 60.1 76.2-3.2 18.6-17.6 32.4-35.2 37.7-25.1 7.7-46.4-7.5-60.5-26.9-5.1-6.9-1.2-17.5 5.6-21.5 7.9-4.6 16.6-1.2 21.6 5.6 4.3 6 11 12.8 18.8 13.3 3.9 0.3 7.8-1.3 10.3-2.7q1.5-0.8 2.9-1.8-1.4 1.2 0.7-0.6c0.1-0.1 3.4-3.8 1.6-1.4 0.4-0.5 3.1-5.6 1.9-2.9 0.6-1.3 1-2.8 1.4-4.2 1.1-4.2 0 2.7 0.3-1.7 0.1-1.6 0.1-3.1 0.1-4.6-0.1-4.8-2.2-10.7-5.5-16.2-5.8-9.6-14.4-15.7-26.1-17-2.4-0.2-4.9-0.2-7.3-0.1-5.1 0.4 2.1-0.7-2.7 0.5-4.1 0.9-4.1 0.9-7.1 2.5-4.2 2.3-9.1 6.7-11.6 10-4.1 5.3-7.3 11.6-9.1 16.7-2.1 5.7-4.4 14.8-4.9 18.9-0.9 6.8-1 13.8-0.4 20.6 0.4 4.6-0.4-2 0.4 2.8q0.6 3.9 1.4 7.7c4.6 24.2 12.2 49.5 9.4 74.3-1.5 12.6-5.5 24.9-15 33.7-11.2 10.5-26.7 13.4-41.5 12.8-20.2-0.8-20.3-32.3 0-31.5z"/>
		<path id="&lt;Path&gt;" class="s2" d="m367.1 669.5c0 44.4-25.8 80.4-57.7 80.4-3.4 0-6.8-0.5-10.1-1.3-4.3 10.5-16.4 18.1-30.7 18.1-17.9 0-32.4-11.9-32.4-26.6 0-12.6 10.8-23.2 25.3-25.9-6.2-12.8-9.8-28.2-9.8-44.7 0-44.4 25.8-80.4 57.7-80.4 31.9 0 57.7 36 57.7 80.4z"/>
		<path id="&lt;Path&gt;" class="s2" d="m582.9 589.1c31.9 0 57.7 36 57.7 80.4 0 16.5-3.6 31.9-9.7 44.7 14.4 2.7 25.3 13.3 25.3 25.9 0 14.7-14.5 26.6-32.4 26.6-14.3 0-26.4-7.6-30.8-18.1-3.2 0.8-6.6 1.3-10.1 1.3-31.8 0-57.7-36-57.7-80.4 0-44.4 25.9-80.4 57.7-80.4z"/>
		<path id="&lt;Path&gt;" class="s3" d="m618.2 789.5l-64.6 20.7c-7.8 2.4-16.1-1.9-18.5-9.7l-0.5-1.5q-8.9 1.7-18.5 3c1.7-11.7 2.7-24 2.7-36.7 0-76.6-34-138.7-75.9-138.7-41.9 0-75.8 62.1-75.8 138.7 0 12.8 0.9 25.2 2.7 36.9q-10.1-1.4-19.5-3.1c-2.9 7.1-10.7 10.8-18.1 8.5l-64.6-20.7c-7.9-2.5-12.2-11.2-9.3-19l6.8-18.7q0.6-2.5 1.8-5l80-251.2 214.6-1.1 57.2 254.7q0 0.1 0 0.2h0.2l8.6 23.7c2.9 7.8-1.3 16.5-9.3 19z"/>
		<path id="&lt;Path&gt;" class="s4" d="m370.3 674c-0.1 10.7-1.1 21.2-2.1 31.8-1.1 10.5-2.4 20.9-4 31.4-3.2 20.8-7.1 41.6-12.5 62.1l-0.1 0.3-0.1 0.1c-0.4 0.7-0.8 1.3-1.3 1.9q-0.8 0.8-1.6 1.6c-1.1 1.1-2.3 2-3.7 2.5 1.1-1 1.8-2.2 2.5-3.4q0.5-0.9 0.9-1.9c0.3-0.6 0.5-1.3 0.8-1.9l-0.2 0.4c1.3-21.2 4.1-42.1 7.6-63 1.7-10.4 3.7-20.7 5.9-31.1 2.3-10.3 4.8-20.6 7.9-30.8z"/>
		<path id="&lt;Path&gt;" class="s4" d="m277.4 790.1c1-2.2 2-4.2 3.1-6.3q1.6-3.1 3.4-6.1 3.5-6 7.4-11.6-2.2 6.5-3.8 13.1-0.8 3.3-1.4 6.6c-0.5 2.2-0.9 4.5-1.2 6.6z"/>
		<path id="&lt;Path&gt;" class="s4" d="m310.5 801c1-1.9 1.9-4 2.8-6q1.4-3.1 2.6-6.3 2.5-6.3 4.4-12.9 0 6.9-0.6 13.8-0.2 3.4-0.7 6.9c-0.3 2.3-0.6 4.6-1 7z"/>
		<path id="&lt;Path&gt;" class="s4" d="m514.2 674c3.3 10.4 5.8 20.9 8.2 31.5 2.3 10.5 4.3 21.1 6.1 31.7 3.7 21.3 6.6 42.7 8 64.3l-0.1-0.4c0.2 0.6 0.5 1.3 0.7 1.9q0.4 1 0.9 1.9c0.7 1.2 1.5 2.4 2.6 3.4-1.4-0.5-2.7-1.4-3.8-2.5q-0.8-0.8-1.5-1.6c-0.5-0.6-1-1.2-1.4-1.9v-0.1l-0.1-0.3c-5.6-20.9-9.6-42.1-13-63.4-1.6-10.7-3.1-21.3-4.2-32.1-1.1-10.7-2.1-21.5-2.4-32.4z"/>
		<path id="&lt;Path&gt;" class="s4" d="m600.5 795c-0.3-2.1-0.7-4.4-1.1-6.6q-0.7-3.3-1.5-6.6-1.6-6.6-3.7-13.1 3.9 5.6 7.4 11.6 1.7 3 3.3 6.1c1.1 2.1 2.2 4.1 3.2 6.3z"/>
		<path id="&lt;Path&gt;" class="s4" d="m567.4 806.1c-0.4-2.4-0.7-4.7-1-7q-0.4-3.5-0.7-6.9-0.6-6.9-0.6-13.8 2 6.6 4.5 12.9 1.2 3.2 2.5 6.3c0.9 2 1.9 4.1 2.8 6z"/>
		<path id="&lt;Path&gt;" class="s5" d="m518.8 765.3c0 12.7-1 25-2.7 36.7-22.5 3.2-47.5 4.9-73.8 4.9-25.8 0-50.4-1.7-72.5-4.7-1.8-11.7-2.7-24.1-2.7-36.9 0-76.6 33.9-138.7 75.8-138.7 41.9 0 75.9 62.1 75.9 138.7z"/>
		<path id="&lt;Path&gt;" class="s2" d="m670.2 304.4c14.7 62.3-23.9 124.8-86.3 139.6-62.3 14.7-124.9-23.9-139.6-86.2-14.8-62.4 23.8-124.9 86.2-139.7 62.4-14.7 124.9 23.9 139.7 86.3z"/>
		<path id="&lt;Path&gt;" class="s2" d="m240 286.8c62.3-14.7 124.9 23.9 139.6 86.3 14.7 62.3-23.9 124.8-86.2 139.6-62.4 14.7-124.9-23.9-139.7-86.2-14.7-62.4 23.9-124.9 86.3-139.7z"/>
		<path id="&lt;Path&gt;" class="s5" d="m639.9 318.5c10.6 44.8-17.1 89.7-61.9 100.3-44.8 10.6-89.8-17.2-100.4-62-10.6-44.8 17.2-89.7 62-100.3 44.8-10.6 89.7 17.1 100.3 62z"/>
		<path id="&lt;Path&gt;" class="s5" d="m352.2 379.5c10.6 44.9-17.2 89.8-62 100.4-44.8 10.6-89.7-17.2-100.3-62-10.6-44.8 17.2-89.7 62-100.3 44.8-10.6 89.7 17.1 100.3 61.9z"/>
		<path id="&lt;Path&gt;" class="s3" d="m462.1 582.7c-40.4 10.3-87.6 8.6-125.9-2.7-50.2-14.8-89-53.1-106.7-96.8-20.8-51.3-5.7-101.6 26.8-148.6 7.5-10.8 15.7-21.2 24.8-31 14-15.2 30.3-28.8 48.2-40.2 40.4-26 80.9-32.8 127.6-23.8 85.9 16.6 169.3 77.4 175.2 160.4 2.9 41.3-12.9 85.2-44.4 117.4-32.7 33.6-79.1 53.5-125.6 65.3z"/>
		<path id="&lt;Path&gt;" class="s5" d="m607 425.2c0.9 27.8-14 58.1-41.3 81.1-28.5 23.9-67.8 39.2-107 48.9-34 8.5-73.1 9.1-104.6 2.9-41.2-8.1-72-32.5-85.1-61.4-11.5-25.3-6.4-50.9 8.9-76q-1.5-2.8-2.8-5.6c-12.9-28.4-0.8-57.4 23.4-85.2 5.5-6.3 11.6-12.5 18.2-18.3 10.3-9.1 22.1-17.3 34.9-24.4 29.1-16 57.6-21.1 89.8-17.5 58.7 6.6 114.3 37.8 117.1 83.7 28.4 17.7 47.5 42.3 48.5 71.8z"/>
		<path id="&lt;Path&gt;" class="s6" d="m346.2 401.4c2.2 9.2-3.5 18.5-12.8 20.7-9.3 2.2-18.5-3.5-20.7-12.8-2.2-9.3 3.5-18.6 12.8-20.8 9.2-2.1 18.5 3.6 20.7 12.9z"/>
		<path id="&lt;Path&gt;" class="s7" d="m339.8 397.1c0.5 2.1-0.8 4.2-2.8 4.6-2.1 0.5-4.2-0.7-4.6-2.8-0.5-2.1 0.7-4.1 2.8-4.6 2.1-0.5 4.1 0.8 4.6 2.8z"/>
		<path id="&lt;Path&gt;" class="s6" d="m530.8 355.2c2.2 9.3-3.5 18.6-12.8 20.8-9.2 2.1-18.5-3.6-20.7-12.9-2.2-9.2 3.5-18.5 12.8-20.7 9.3-2.2 18.5 3.5 20.7 12.8z"/>
		<path id="&lt;Path&gt;" class="s7" d="m527 349.5c0.5 2.1-0.7 4.2-2.8 4.7-2.1 0.4-4.1-0.8-4.6-2.9-0.5-2.1 0.8-4.1 2.8-4.6 2.1-0.5 4.2 0.8 4.6 2.8z"/>
		<path id="&lt;Path&gt;" class="s6" d="m415.2 400.3l28.3-6.7c8.6-2.1 15.2 6.7 10.3 13.8l-11.1 16.1c-3 4.3-8.8 5.7-13.4 3.2l-17.1-9.5c-7.6-4.1-5.6-14.9 3-16.9z"/>
		<path id="&lt;Path&gt;" class="s6" d="m393.7 462.1c8.9 1.5 17.5 2.3 26.1 2.4 8.5 0.1 16.9-0.7 25-2.5 4.1-0.8 8.1-2 12-3.4 3.9-1.4 7.7-3.2 11.5-5.1 7.5-3.9 14.6-8.8 21.9-14.2-4.3 8-10.5 14.9-18 20.5-3.7 2.7-7.7 5.2-12 7.1-4.3 1.9-8.8 3.3-13.4 4.4-9.1 2-18.6 2.1-27.7 0.6-9-1.6-17.9-4.6-25.4-9.8z"/>
		<path id="&lt;Path&gt;" class="s8" d="m434.6 419l11.2 47.7"/>
		<path id="&lt;Path&gt;" class="s2" d="m628.7 441.8c-5.6 21-15.7 41.3-29.9 59.1-29.6 36.9-74.4 61.6-120.1 78-39.6 14.3-87.3 17.2-127 9.6-51.9-10-94.7-44.8-116.8-87-22.8-43.5-17.6-88.9 3-133.6-10.2 34.8-9.3 69.7 8.4 103.5 22.1 42.2 64.9 77 116.8 87 39.7 7.6 87.4 4.7 127-9.6 45.7-16.4 90.5-41 120.1-78 7.3-9.1 13.4-18.8 18.5-29z"/>
	</g>
</svg>