<svg version="1.2" xmlns="http://www.w3.org/2000/svg" viewBox="0 0 1000 1000" width="1000" height="1000">
	<title>New Project</title>
	<style>
		.s0 { fill: #e6e6e6 } 
		.s1 { fill: #aaa3c1 } 
		.s2 { fill: #f5f1f5 } 
		.s3 { fill: #5da9aa } 
		.s4 { fill: #cb5325 } 
		.s5 { fill: #c33300 } 
		.s6 { fill: #003672 } 
		.s7 { fill: #2bcd3a } 
		.s8 { fill: #d69ba4 } 
		.s9 { fill: #481e19 } 
		.s10 { fill: #d4624e } 
		.s11 { fill: #9890b4 } 
	</style>
	<g id="PEnguin">
		<path id="&lt;Path&gt;" class="s0" d="m537.4 931.1c-146.4 0-264.7-17-264.7-38.1 0-21.1 118.3-38.1 264.7-38.1 146.4 0 264.8 17 264.8 38.1 0 21.1-118.4 38.1-264.8 38.1z"/>
		<path id="&lt;Path&gt;" class="s1" d="m760.8 690.5v65.7h-243.1c-18.2 0-32.8-14.7-32.8-32.9 0-9 3.7-17.2 9.6-23.1 6-6 14.1-9.7 23.2-9.7z"/>
		<path id="&lt;Path&gt;" class="s1" d="m632.8 756.1h-243c-18.2 0-32.9-14.6-32.9-32.8 0-18.1 14.7-32.8 32.9-32.8h243c-22.5 0-22.5 65.6 0 65.6z"/>
		<path id="&lt;Path&gt;" class="s2" d="m760.8 700.7v45.3h-139.1c-12.6 0-22.7-10.2-22.7-22.7 0-6.3 2.5-11.9 6.6-16 4.1-4.1 9.8-6.6 16.1-6.6z"/>
		<path id="&lt;Path&gt;" class="s3" d="m760.8 818.2v65.7h-243.1c-18.2 0-32.8-14.7-32.8-32.9 0-9 3.7-17.2 9.6-23.1 6-6 14.1-9.7 23.2-9.7z"/>
		<path id="&lt;Path&gt;" class="s3" d="m632.8 883.8h-243c-18.2 0-32.9-14.7-32.9-32.8 0-18.1 14.7-32.8 32.9-32.8h243c-22.5 0-22.5 65.6 0 65.6z"/>
		<path id="&lt;Path&gt;" class="s2" d="m760.8 828.4v45.3h-139.1c-12.6 0-22.7-10.2-22.7-22.7 0-6.3 2.5-11.9 6.6-16 4.1-4.1 9.8-6.6 16.1-6.6z"/>
		<path id="&lt;Path&gt;" class="s4" d="m600 751.8c9.1 0 17.3 3.7 23.2 9.7 5.9 5.9 9.6 14.1 9.6 23.1 0 18.2-14.6 32.9-32.8 32.9h-243.1v-65.7z"/>
		<path id="&lt;Path&gt;" class="s5" d="m484.9 751.8h243.1c18.1 0 32.8 14.7 32.8 32.8 0 18.1-14.7 32.8-32.8 32.8h-243.1c22.6 0 22.6-65.6 0-65.6z"/>
		<path id="&lt;Path&gt;" class="s2" d="m496.1 762c6.2 0 11.9 2.5 16.1 6.6 4 4.1 6.5 9.7 6.5 16 0 12.5-10.1 22.7-22.6 22.7h-139.2v-45.3z"/>
		<path id="&lt;Path&gt;" class="s6" d="m427.6 391.4c-2.2 7.7-6.2 14.8-11.8 20.7-2.3 2.5-4.7 4.9-7 7.1-13 12.8-26.2 23.1-39.1 31.4q-1 0.7-2 1.3c-2.6 1.6-5.1 3.1-7.6 4.6-84.3 48.1-158.4 13.8-129.9-1.9 32-17.9 56.1-36.2 73.7-54.4q4.7-4.9 8.8-9.8c3.2-3.7 6-7.4 8.6-11q8.4-11.6 13.5-23c7.7-16.7 22.2-25.8 37.4-28.1 12.8-2 26.1 0.9 36.6 8.2 3.4 19.1 9.5 37.7 18.8 54.9z"/>
		<path id="&lt;Path&gt;" class="s7" d="m427.6 391.4c-2.2 7.7-4.1 17.5-9.8 23.5-2.3 2.4-4.6 4.8-7 7.1-12.9 12.7-28.2 20.3-41.1 28.6q-1 0.7-2 1.3c1.6-36.7-26.7-60.4-46.4-72.5q8.4-11.6 13.5-23c7.7-16.7 22.2-25.8 37.4-28.1 12.8-2 26.1 0.9 36.6 8.2 13.6 12.3 21.3 29.9 18.8 54.9z"/>
		<path id="&lt;Path&gt;" class="s6" d="m707.2 512.9c0 10.9-0.9 21.6-2.6 32-16.5 100.5-109 175.3-216.5 163.5-42.7-4.8-81.4-23.4-111.4-51.4-23.8-22.1-42.1-50-52.7-81.3-4.8-14.2-8-29-9.4-44.4-0.2-2.1-0.4-4.2-0.4-6.3-0.8-11.2-0.5-22.2 0.7-33 0.2-1.5 0.4-3 0.6-4.6q1.9-15.5 6.3-30.4c3.7-12.5 8.6-24.5 14.7-35.9 3.3-6.3 7.1-12.6 11.2-18.6 0.1-0.2 0.1-0.3 0.2-0.3 0.5-0.9 1-1.5 1.5-2.2 1.3-1.9 2.5-3.8 3.7-5.7 1-1.4 1.9-2.8 2.8-4.2 0-0.1 0-0.2 0.1-0.3l0.1-0.1c7.3-11.8 13.2-24.3 17.9-37.2 0.3-0.9 0.7-1.9 1-2.8 4.2-11.8 7.2-23.9 9.3-36.2 0.2-0.9 0.3-1.8 0.4-2.7 0.1-0.2 0.1-0.5 0.2-0.9 2.8-17.8 3.6-35.9 2.6-54.2-0.2-2.4-0.3-4.8-0.3-7.3 0-1.2 0-2.2 0.1-3.4 0-0.1 0-0.1 0-0.1 2-75.3 67.8-134.6 145.2-126.1 60.8 6.7 109.6 56.5 115.1 117.4 0.9 10.2 0.7 20.2-0.6 29.9-3.2 23.6-3.1 47.4 1 70.4 1.9 11 4.8 21.9 8.7 32.5 2.8 7.7 6.2 15.1 10.1 22.4 2.4 4.5 5 8.8 7.8 13.1 20.6 31.1 32.6 68.3 32.6 108.4z"/>
		<path id="&lt;Path&gt;" class="s2" d="m664.4 492.5c0 21.4-3.9 41.9-11.1 60.8-26.7 70.1-98.2 118.3-179.6 109.3-79.8-8.9-143.6-74.1-151-154.2-0.3-3.5-0.5-7-0.6-10.5-1.1-35.2 8.5-67.9 25.6-95.4 0.1-0.2 0.1-0.3 0.2-0.3q2.5-4.1 5.2-7.9c1-1.4 1.9-2.8 2.8-4.2 0.1-0.1 0.2-0.2 0.2-0.4 8.3-12.5 14.7-25.8 19.5-39.8 4.4-12.6 7.4-25.7 9.1-39.1 0.1-0.2 0.1-0.5 0.2-0.9 1.7-13.6 2.1-27.4 1.3-41.2-0.1-2.1-0.2-4.2-0.2-6.3 0-5.7 0.4-11.5 1.3-17.4 0-0.1 0-0.1 0-0.1 3.5-23.8 13.9-48.1 31.6-64.1 29-26 57.5-9.2 58.4 28.3 0 1.3 1.7 1.6 2.1 0.4 13.7-38.4 56.1-63.4 91.9-34.9 22.5 17.8 38.7 48.8 41.2 77.1 0.8 8.9 0.6 17.7-0.5 26-4.2 31.4-1.8 63.5 9.5 92.4 3.8 9.7 8.6 19.1 14.5 28.1 17.9 27 28.4 59.4 28.4 94.3z"/>
		<path id="&lt;Path&gt;" class="s8" d="m567.7 279.8c0.5 8.6-10.2 16.2-24 17.1-13.7 0.9-25.3-5.3-25.9-13.8-0.5-8.6 10.2-16.2 24-17.1 13.7-0.9 25.3 5.3 25.9 13.8z"/>
		<path id="&lt;Path&gt;" class="s8" d="m443.6 277.1c0.5 8.5-10.2 16.2-24 17.1-13.7 0.8-25.3-5.3-25.9-13.9-0.5-8.5 10.2-16.1 24-17 13.7-0.9 25.3 5.3 25.9 13.8z"/>
		<path id="&lt;Path&gt;" class="s9" d="m539.3 258.6c-8.4 1.5-17.2-8.2-19.7-21.8-2.5-13.6 2.3-25.8 10.7-27.4 8.4-1.5 17.2 8.2 19.7 21.8 2.5 13.6-2.3 25.8-10.7 27.4z"/>
		<path id="&lt;Path&gt;" class="s9" d="m441.5 258.6c-8.4 1.5-17.2-8.2-19.7-21.8-2.5-13.6 2.2-25.8 10.6-27.4 8.4-1.5 17.3 8.2 19.8 21.8 2.5 13.6-2.3 25.8-10.7 27.4z"/>
		<path id="&lt;Path&gt;" class="s10" d="m368.1 663c-15.2 7.4-33.6 0.5-42.5-13.9-8.2-13.3-14.6-40.6-13.6-70.5 0.2-6.6 9.1-8.6 12.2-2.8 2.5 4.9 9.5 4.6 11.6-0.4l2.7-6.4c2.2-5.2 9.6-5.2 11.9 0l4.7 11.1c2 4.6 8.2 5.3 11.2 1.2l11.4-15.8c3.4-4.6 10.6-2.9 11.6 2.7 4.7 26 10.2 79.5-21.2 94.8z"/>
		<path id="&lt;Path&gt;" class="s10" d="m557.9 679.2c-15.3 7.4-33.6 0.5-42.5-14-8.2-13.3-14.6-40.5-13.7-70.5 0.2-6.6 9.1-8.5 12.2-2.7 2.5 4.9 9.5 4.6 11.6-0.4l2.7-6.4c2.3-5.3 9.7-5.3 11.9 0l4.8 11.1c1.9 4.6 8.2 5.3 11.1 1.2l11.5-15.8c3.3-4.6 10.5-3 11.5 2.7 4.8 26 10.2 79.5-21.1 94.8z"/>
		<path id="&lt;Path&gt;" class="s10" d="m462.3 271.3c-0.9-13.7 12-24.1 20.5-24.6 8.5-0.5 16.1 10.3 16.9 24 0.9 13.8-5.3 25.4-13.9 25.9-8.5 0.5-22.7-11.5-23.5-25.3z"/>
		<path id="&lt;Path&gt;" class="s9" d="m498 270.8c-9.3 5.7-20 7.1-30.5 4.2-2.2-0.7-1.3-4.2 1-3.5 9.6 2.7 19.2 1.4 27.7-3.8 2-1.3 3.8 1.9 1.8 3.1z"/>
		<path id="&lt;Path&gt;" class="s9" d="m559.2 610.5c-5.3 18.2-11.3 36.2-17.9 53.9 0.1 0.5-0.1 1-0.4 1.3-0.7 1.9-1.4 3.8-2.1 5.7-0.8 2.1-4.3 1.2-3.5-1 0.7-1.9 1.4-3.8 2.1-5.6-11.8-16.5-19.2-34.9-22.1-55-0.3-2.3 3.2-3.3 3.5-1 2.5 16.9 8.3 32.5 17.1 46.8-2.1-16.6-2.8-33.2-1.8-50 0.1-2.3 3.7-2.3 3.6 0-1 17.5-0.3 34.9 2.1 52.3 5.8-16 11.2-32.1 15.9-48.4 0.6-2.2 4.1-1.2 3.5 1z"/>
		<path id="&lt;Path&gt;" class="s9" d="m375.7 592.5c-3.9 18.8-9 37.2-15.4 55.3-0.4 1.1-1.5 1.3-2.4 1-0.9 0.6-2.3 0.5-2.7-0.9-0.1-0.4-0.2-0.9-0.4-1.4-17.2-8.2-21.4-33.4-27.1-49.5-0.8-2.2 2.7-3.1 3.5-1 5 14.3 8.8 36.3 22.3 45.6-5-18.1-8.4-36.4-10.1-55.1-0.2-2.3 3.4-2.3 3.6 0 1.8 19.5 5.4 38.5 10.8 57.2 5.9-17.1 10.7-34.4 14.4-52.2 0.4-2.3 3.9-1.3 3.5 1z"/>
		<path id="&lt;Path&gt;" class="s7" d="m707.2 512.9c0 10.9-0.9 21.6-2.6 32-14.9 2.9-32.3 5.8-51.3 8.4-97.3 13-239.8 15.9-331.2-55.4-2.5-1.9-4.8-3.8-7.2-5.9 0.2-1.5 0.4-3 0.6-4.6q1.9-15.5 6.3-30.4c3.7-12.5 8.6-24.5 14.7-35.9 3.3-6.3 7.1-12.6 11.2-18.6 0.1-0.2 0.1-0.3 0.2-0.3q2.5-4.1 5.2-7.9c1-1.4 1.9-2.8 2.8-4.2 0-0.1 0-0.2 0.1-0.3l0.1-0.1c7.3-11.8 13.2-24.3 17.9-37.2 0.3-0.9 0.7-1.9 1-2.8 0.1 0.1 0.4 0.1 0.6 0.2 28.4 10.7 94.5 24.1 245.9 20.2 11.2-0.2 23-0.6 35.2-1.1 2.8 7.7 6.2 15.1 10.1 22.4 2.4 4.5 5 8.8 7.8 13.1 20.6 31.1 32.6 68.3 32.6 108.4z"/>
		<path id="&lt;Path&gt;" class="s9" d="m633 393.1c-75.4 3.2-150.2-1.1-224.7-13-2.6-0.4-1.5-4.4 1-4 74.3 11.9 148.6 16.1 223.7 12.9 2.6-0.1 2.6 4 0 4.1z"/>
		<path id="&lt;Path&gt;" class="s9" d="m621.8 407.2c-64.8 2.9-129.1 0-193.3-8.6-2.6-0.4-1.5-4.3 1-4 64 8.6 127.9 11.4 192.3 8.5 2.7-0.1 2.7 4 0 4.1z"/>
		<path id="&lt;Path&gt;" class="s9" d="m658.3 539.9c-104.3 8.1-209 5.1-306.3-37-2.4-1-0.4-4.6 2-3.5 96.6 41.7 201 44.4 304.3 36.4 2.7-0.2 2.6 3.9 0 4.1z"/>
		<path id="&lt;Path&gt;" class="s9" d="m656.1 529.5c-68.3 3.9-136.1 1.8-204-6.5-2.6-0.3-2.6-4.4 0-4.1 67.9 8.3 135.7 10.5 204 6.5 2.6-0.1 2.6 4 0 4.1z"/>
		<path id="&lt;Path&gt;" class="s2" d="m155.3 371.2v-24.4c0 0 112.4-4.5 126.9 35.3 0 0 7.2-31.7 135.8-30.8 0 0 60.7-6.3 82.5-15.4l137.6 145.9 1.9 24.4-222.9 23.6-156.7-65.3z"/>
		<path id="&lt;Path&gt;" class="s1" d="m654.4 511.6l-195.3 36.1-39.3-0.7-117.7-24.5-153.1-153.1c2.7 0.9 115.9 32.6 115.9 32.6l50.5-2.6 183.2-43.6z"/>
		<path id="&lt;Path&gt;" class="s11" d="m315.4 399.4l143.7 148.3-43.8-0.4-150.4-145.3z"/>
		<path id="&lt;Path&gt;" class="s6" d="m666.8 391.4c-2.2 7.7-6.2 14.8-11.9 20.7-2.3 2.5-4.6 4.9-7 7.1-12.9 12.8-26.2 23.1-39.1 31.4q-1 0.7-1.9 1.3c-2.7 1.6-5.2 3.1-7.6 4.6-84.3 48.1-158.4 13.8-130-1.9 32.1-17.9 56.1-36.2 73.7-54.4q4.8-4.9 8.8-9.8c3.2-3.7 6.1-7.4 8.7-11q8.3-11.6 13.5-23c7.7-16.7 22.1-25.8 37.4-28.1 12.7-2 26 0.9 36.6 8.2 3.3 19.1 9.5 37.7 18.8 54.9z"/>
		<path id="&lt;Path&gt;" class="s7" d="m666.8 391.4c-2.2 7.7-4.2 17.5-9.8 23.5-2.3 2.4-4.7 4.8-7.1 7.1-12.9 12.7-28.2 20.3-41.1 28.6q-1 0.7-1.9 1.3c1.5-36.7-26.8-60.4-46.4-72.5q8.3-11.6 13.5-23c7.7-16.7 22.1-25.8 37.4-28.1 12.7-2 26 0.9 36.6 8.2 13.6 12.3 21.3 29.9 18.8 54.9z"/>
	</g>
</svg>