<svg version="1.2" xmlns="http://www.w3.org/2000/svg" viewBox="0 0 1000 1000" width="1000" height="1000">
	<title>New Project</title>
	<style>
		.s0 { fill: #5b462b } 
		.s1 { fill: #2bcd3a } 
		.s2 { fill: #cfc12a } 
		.s3 { fill: #e6e6e6 } 
		.s4 { fill: #f2f2f2 } 
		.s5 { fill: #ffffff } 
		.s6 { fill: #513307 } 
		.s7 { fill: #b7b7b7 } 
	</style>
	<g id="Zebra">
		<path id="&lt;Path&gt;" class="s0" d="m280 778.2c0 0-10-0.2-10-0.2-14.6-0.2-21.7-13.7-25.7-26-2.3-7.1-3.7-14.3-4.8-21.6-1.1-7.5-4.1-17.6 1-24.2 2.9-3.9 7.5-6 12.2-7.1 1.4-0.3 19.3-2.3 19.5-0.4 0 0 7.8 79.5 7.8 79.5z"/>
		<path id="&lt;Path&gt;" class="s1" d="m843.3 678c1.9 5.9 3 12.2 3 18.6 0 36.8-33 66.5-73.6 66.5-14.5 0-28-3.8-39.4-10.3l-299.3-25.2c-7.4 2.2-15.2 3.4-23.3 3.4-40.7 0-73.6-29.8-73.6-66.5 0-12.1 3.6-23.5 9.9-33.3-35.4-12.9-60.3-44.2-60.3-80.8 0-48.1 43.1-87.1 96.4-87.1 10.1 0 19.8 1.4 28.9 4 8.9-39.9 47.8-70 94.6-70 21.9 0 42.1 6.6 58.3 17.8 13.2-17.7 35.6-29.3 60.9-29.3 39.4 0 71.5 27.9 73.5 63 11.9-4.8 25.1-7.5 39-7.5 53.3 0 96.4 39 96.4 87.1 0 7.5-1 14.8-3 21.7 34.3 5.7 60.2 32.8 60.2 65.4 0 28.8-20.2 53.3-48.6 62.5z"/>
		<path id="&lt;Path&gt;" class="s1" d="m427 677.4q1.3 7.1 1.3 14.6c0 46.2-40.7 83.7-91 83.7-20.6 0-39.5-6.2-54.7-16.7-6.6 1.4-13.5 2.1-20.5 2.1-50.3 0-91.1-37.5-91.1-83.8 0-46.2 40.8-83.7 91.1-83.7q4 0 8 0.3c14.3-29.1 46.1-49.4 83.1-49.4 50.3 0 91.1 37.5 91.1 83.8 0 18.3-6.5 35.3-17.3 49.1z"/>
		<path id="&lt;Path&gt;" class="s2" d="m501.5 852.2c-180.6 0-326.5-39.1-326.5-87.4 0-48.3 145.9-87.4 326.5-87.4 180.5 0 326.4 39.1 326.4 87.4 0 48.3-145.9 87.4-326.4 87.4z"/>
		<path id="&lt;Path&gt;" class="s3" d="m339.7 782.2l-59.7-4-7.8-79.5 118.3-43.9z"/>
		<path id="&lt;Path&gt;" class="s3" d="m724.6 699.3l-7.7 79.5-59.8 4-50.7-127.4 48.2 17.9 3.2 19.2c0.5 2.4 3.7 3 5 0.9l8.2-14 18.1 6.7 2 11.6c0.4 2.5 3.6 3.1 4.9 0.9l4.8-8.1z"/>
		<path id="&lt;Path&gt;" class="s0" d="m724.6 699.3c0.2-1.9 18.2 0.1 19.6 0.4 4.6 1.1 9.2 3.2 12.2 7.1 5.1 6.6 2 16.7 0.9 24.2-1.1 7.3-2.4 14.5-4.7 21.6-4 12.3-11.1 25.8-25.7 26 0 0-10 0.2-10 0.2 0 0 7.7-79.5 7.7-79.5z"/>
		<path id="&lt;Path&gt;" class="s4" d="m654 802.4l-57.2 18.3c-6.9 2.2-14.3-1.7-16.4-8.6l-0.4-1.3q-7.9 1.5-16.4 2.7c1.5-10.4 2.4-21.3 2.4-32.6 0-67.9-30.1-122.9-67.2-122.9-37.1 0-67.2 55-67.2 122.9 0 11.3 0.8 22.3 2.4 32.7q-9-1.2-17.3-2.7c-2.5 6.2-9.5 9.5-16 7.4l-57.2-18.2c-7.1-2.3-10.9-10-8.3-16.9l6-16.5q0.5-2.3 1.7-4.5l34.8-109.5h45.5c3 0 3.6-6.3 0.6-7.5l-38.9-14.9 5.2-16.6h72.7c3.1 0 3.6-6.3 0.7-7.5l-63.3-24.1 13.5-42.4 190.1-1 9.5 42.3-72.5 27.8c-3 1.1-2.4 7.4 0.6 7.4h79.8l3.3 14.7-44.1 16.8c-3 1.2-2.4 7.5 0.6 7.5h49l24.5 109.1q0 0.1 0 0.2h0.1l7.7 21c2.5 6.9-1.2 14.6-8.3 16.9z"/>
		<path id="&lt;Path&gt;" class="s3" d="m565.9 780.9c0 11.3-0.8 22.2-2.3 32.6-19.9 2.7-42.1 4.3-65.4 4.3-22.9 0-44.6-1.5-64.2-4.2-1.6-10.4-2.4-21.4-2.4-32.7 0-67.9 30.1-122.9 67.2-122.9 37.1 0 67.1 55 67.1 122.9z"/>
		<path id="&lt;Path&gt;" class="s3" d="m598.3 236.3l48.1-0.6c8.2-0.1 14.6 7.3 14.8 17l1.1 54c-50.4-5-64-70.4-64-70.4z"/>
		<path id="&lt;Path&gt;" class="s3" d="m392 258.7l20-50.1c3.6-9.1 12.3-13.7 19.9-10.8l44.8 17.6c0 0-35.8 56.4-84.7 43.3z"/>
		<path id="&lt;Path&gt;" class="s4" d="m662.8 335.2l-17.9 145.6-1.9 15.9c0 0-219.7 71.9-279.6-50.5 4.5-42.7 8.5-85.6 13.1-128.4 2.6-23.9-0.6-51.2 18.5-67.8 34.3-29.8 88.7-43.1 133.8-38.9q2.3 0.3 4.7 0.5c19.7 2.5 40.1 11 57.7 19.7 21.6 10.7 43.7 24.3 60.2 42 19 20.3 14.5 36.7 11.4 61.9z"/>
		<path id="&lt;Path&gt;" class="s0" d="m487.6 585.9c-31.2-2.9-64.5-14-89.3-28.5-32.4-19.1-51.3-49-54-77.3-3.1-33.2 19.2-58.1 53.2-77.6 7.8-4.4 16-8.5 24.7-12.1 13.5-5.5 28.2-9.6 43.6-12.2 34.8-5.8 65.3-1 96.5 14.1 57.5 27.8 103.1 79.8 88.4 127.6-7.4 23.8-28.7 45-58.5 56.4-31 11.8-68.7 13-104.6 9.6z"/>
		<path id="&lt;Path&gt;" class="s0" d="m468.7 348.1c-0.9 7.6-7.8 13-15.4 12.1-7.6-0.9-13-7.8-12.1-15.4 1-7.6 7.9-13 15.5-12.1 7.6 0.9 13 7.8 12 15.4z"/>
		<path id="&lt;Path&gt;" class="s5" d="m462 345.9c-1.7 0-3-1.4-3-3.1 0-1.7 1.3-3.1 3-3.1 1.7 0 3.1 1.4 3.1 3.1 0 1.7-1.4 3.1-3.1 3.1z"/>
		<path id="&lt;Path&gt;" class="s0" d="m589.3 360.9c-1 7.6-7.9 13-15.5 12.1-7.6-0.9-13-7.8-12-15.4 0.9-7.6 7.8-13 15.4-12.1 7.6 0.9 13 7.9 12.1 15.4z"/>
		<path id="&lt;Path&gt;" class="s5" d="m584.9 358.3c-1.7 0-3-1.4-3-3.1 0-1.7 1.3-3 3-3 1.7 0 3.1 1.3 3.1 3 0 1.7-1.4 3.1-3.1 3.1z"/>
		<path id="&lt;Path&gt;" class="s3" d="m644.2 467.8c-14.5-29.9-46.3-57.4-82.8-75-31.2-15.1-61.7-19.9-96.5-14.1-15.4 2.6-30.1 6.7-43.6 12.2-8.7 3.6-17 7.6-24.8 12.1-11.7 6.7-22 14.1-30.4 22.2 8.8-14.1 23-26.2 40.5-36.7 7.3-4.4 15-8.5 23.2-12 12.7-5.5 26.5-9.6 41-12.2 32.6-5.9 61.1-1.3 90.3 13.3 40.8 20.3 75 54.5 83.1 90.2z"/>
		<path id="&lt;Path&gt;" class="s6" d="m643.1 536.9c-10.4 17.2-28.3 31.9-51.4 40.7-31 11.7-68.7 13-104.6 9.6-31.2-2.9-64.4-14-89.2-28.6-32.4-19-51.4-48.9-54-77.2-1.8-18.9 4.7-35.2 16.9-49.3-6.7 11.3-10 23.9-8.7 38 2.7 28.3 21.6 58.1 54 77.2 24.8 14.6 58.1 25.6 89.3 28.6 35.9 3.3 73.6 2.1 104.6-9.7 17.8-6.8 32.5-17.1 43.1-29.3z"/>
		<path id="&lt;Path&gt;" class="s6" d="m480.4 432c-1.7 14.2-10.4 24.8-19.5 23.7-9.1-1.1-15-13.5-13.2-27.8 1.7-14.2 10.5-24.8 19.5-23.7 9.1 1.1 15 13.5 13.2 27.8z"/>
		<path id="&lt;Path&gt;" class="s6" d="m574.1 443.4c-1.7 14.3-10.5 24.9-19.5 23.8-9.1-1.1-15-13.6-13.3-27.8 1.8-14.2 10.5-24.8 19.6-23.7 9 1.1 14.9 13.5 13.2 27.7z"/>
		<path id="&lt;Path&gt;" class="s0" d="m587.7 228.5c0 0-31 14-59.5 14q-2.3 0.1-4.6 0.2c-22.1 0.7-62.4-3.5-60.1-34.4 0.8-10.8 4.5-22.5 11-31.4 1.4-1.9 4.3-0.7 4 1.7-0.7 5.9-1.7 20.9 4.3 24.5 4-7.3 2.6-16.5 7.6-23.6 2.1-3.1 7-1.9 7.5 1.8 0.1 1.5 0.4 2.6 0.6 3.2 4 12.5 18.7 5 27.5 3.6 8-1.4 16.4-1.7 24.5-0.5 8.8 1.3 17.3 4.5 23.9 10.7 3.6 3.4 6.5 7.6 8.6 12.1 0.8 1.8 6.5 17.3 4.7 18.1z"/>
		<path id="&lt;Path&gt;" class="s0" d="m657.6 381l-38.1-18.4c-4.8-2.3-3.4-9.6 2-9.9l39.9-2c-0.5 5.3-1.4 10.8-2.1 16.9z"/>
		<path id="&lt;Path&gt;" class="s0" d="m412.3 335.3l-37.8 6.1q0.3-2.5 0.6-5c0.8-7.8 1-16 1.6-24.1l36.6 13c5 1.8 4.4 9.2-1 10z"/>
		<path id="&lt;Path&gt;" class="s0" d="m391.7 381.2l-21.6 3.4q1-10.4 2.1-20.8l20.4 7.3c5.1 1.8 4.4 9.2-0.9 10.1z"/>
		<path id="&lt;Path&gt;" class="s0" d="m632.3 401.6l23.2-0.8q-2 10.2-4 20.5l-21.3-9.8c-5.2-2.4-3.7-9.6 2.1-9.9z"/>
		<path id="&lt;Path&gt;" class="s0" d="m345.6 753.7c0 0 79.3 25.1 79.3 25.1 1.6 0.5 0.5 9.3 0.4 10.3-1.2 8.4-5.5 19.6-10.9 26.3-4.4 5.7-12 4.3-17.9 2.4 0 0-53-17.7-53-17.7 0 0-12.5-4.7-6.7-21.3z"/>
		<path id="&lt;Path&gt;" class="s0" d="m662 780c5.7 16.7-6.7 21.3-6.7 21.3 0 0-53 17.7-53 17.7-6 2-13.5 3.3-18-2.3-5.3-6.8-9.6-17.9-10.8-26.4-0.1-0.9-1.2-9.8 0.4-10.3 0 0 79.3-25 79.3-25z"/>
		<path id="&lt;Path&gt;" class="s7" d="m424.9 778.8c1-7 2.4-13.8 4-20.6 0.8-3.4 1.7-6.8 2.5-10.2 0.9-3.4 1.9-6.7 2.9-10.1q2.9-10 6.4-19.9c2.4-6.6 5-13.1 8.2-19.4-1.4 6.9-2.9 13.7-4.7 20.5-1.7 6.7-3.5 13.5-5.5 20.2l-3 9.9c-1.1 3.4-2.1 6.7-3.3 10-2.3 6.6-4.7 13.1-7.5 19.6z"/>
		<path id="&lt;Path&gt;" class="s7" d="m573.4 782.6c-2.8-6.5-5.2-13-7.5-19.6-1.2-3.3-2.2-6.7-3.3-10l-3-10c-2-6.7-3.8-13.4-5.5-20.1-1.8-6.8-3.3-13.6-4.7-20.5 3.2 6.3 5.8 12.8 8.2 19.4q3.5 9.9 6.4 19.9c1 3.4 2 6.7 2.8 10.1 0.9 3.4 1.8 6.7 2.6 10.1 1.6 6.8 3 13.7 4 20.7z"/>
		<path id="&lt;Path&gt;" class="s0" d="m621.2 616.2h-79.8c-3 0-3.6-6.3-0.6-7.4l72.5-27.8z"/>
		<path id="&lt;Path&gt;" class="s0" d="m630 655.2h-49c-3 0-3.6-6.3-0.6-7.5l44.1-16.8z"/>
		<path id="&lt;Path&gt;" class="s0" d="m462.8 613.7h-72.7l10.1-31.6 63.3 24.1c2.9 1.2 2.4 7.5-0.7 7.5z"/>
		<path id="&lt;Path&gt;" class="s0" d="m423.2 652.7h-45.5l7.2-22.4 38.9 14.9c3 1.2 2.4 7.5-0.6 7.5z"/>
		<path id="&lt;Path&gt;" class="s0" d="m671 679.4l-8.2 14c-1.3 2.1-4.5 1.5-5-0.9l-3.2-19.2z"/>
		<path id="&lt;Path&gt;" class="s0" d="m700.8 690.5l-4.8 8.1c-1.3 2.2-4.5 1.6-4.9-0.9l-2-11.6z"/>
		<path id="&lt;Path&gt;" class="s0" d="m342.4 672.1l-3.3 19.1c-0.4 2.5-3.6 3.1-4.9 0.9l-8.3-13.9z"/>
		<path id="&lt;Path&gt;" class="s0" d="m307.9 684.9l-2 11.6c-0.4 2.4-3.7 3-4.9 0.9l-4.9-8.2z"/>
	</g>
</svg>